<svg width="66" height="66" viewBox="0 0 66 66" fill="none" xmlns="http://www.w3.org/2000/svg">
<path d="M28.4935 23.5835V25.6553H20.0357V31.5294H27.9816V33.6012H20.0357V41.1572H17.6227V23.5835H28.4935ZM33.8158 27.8246V41.1572H31.4515V27.8246H33.8158ZM33.8889 23.0473V25.6309H31.3784V23.0473H33.8889ZM48.4106 40.9865C48.4106 44.7239 46.4282 46.5926 42.4634 46.5926C41.5534 46.5926 40.7247 46.4626 39.9772 46.2026C39.2298 45.9426 38.5798 45.6013 38.0273 45.1789L39.0998 43.3264C39.5385 43.6514 40.0503 43.9195 40.6353 44.1308C41.2365 44.342 41.8703 44.4476 42.5365 44.4476C43.6902 44.4476 44.5595 44.1633 45.1445 43.5946C45.7457 43.0421 46.0463 42.1727 46.0463 40.9865V39.3535C45.6726 39.9872 45.1445 40.4341 44.462 40.6941C43.7796 40.9703 43.0321 41.1084 42.2196 41.1084C40.5297 41.1084 39.2379 40.6209 38.3442 39.646C37.4667 38.6548 37.028 37.2492 37.028 35.4293V33.3087C37.028 32.415 37.158 31.6107 37.418 30.8957C37.6779 30.1808 38.0354 29.5795 38.4904 29.0921C38.9616 28.6046 39.5222 28.2308 40.1722 27.9708C40.8222 27.7109 41.5372 27.5809 42.3171 27.5809C43.3408 27.5809 44.1452 27.7596 44.7301 28.1171C45.3314 28.4583 45.7701 28.8239 46.0463 29.2139V27.8246H48.4106V40.9865ZM46.0707 32.48C46.0707 32.1388 45.9813 31.7976 45.8026 31.4563C45.6401 31.1151 45.3964 30.8145 45.0714 30.5545C44.7626 30.2783 44.3889 30.0589 43.9502 29.8964C43.5277 29.7339 43.0646 29.6527 42.5609 29.6527C41.5534 29.6527 40.7653 30.002 40.1966 30.7007C39.6441 31.3995 39.3679 32.3825 39.3679 33.65V35.0393C39.3679 36.3067 39.6522 37.2898 40.221 37.9885C40.7897 38.6873 41.5697 39.0366 42.5609 39.0366C43.0483 39.0366 43.5033 38.9635 43.9258 38.8173C44.3483 38.6548 44.7139 38.4273 45.0226 38.1348C45.3476 37.8423 45.5995 37.4929 45.7782 37.0867C45.9732 36.6642 46.0707 36.193 46.0707 35.673V32.48Z" fill="white"/>
<circle cx="32.6861" cy="32.6851" r="28.7613" stroke="white" stroke-width="1.77032"/>
<path d="M49.8665 9.84249C50.8966 8.47288 52.8541 8.18709 54.1165 9.34611C58.9119 13.749 62.2547 19.5426 63.6487 25.9531C65.2634 33.3784 64.1559 41.1367 60.5281 47.8136C56.9003 54.4905 50.9938 59.6414 43.8854 62.3271C36.777 65.0129 28.9402 65.0547 21.8036 62.4449C14.6669 59.835 8.70588 54.7474 5.0071 48.1096C1.30831 41.4717 0.118161 33.7256 1.65361 26.2835C3.18905 18.8414 7.34784 12.199 13.3718 7.56708C18.5724 3.56828 24.8641 1.29793 31.3686 1.02735C33.0808 0.956117 34.3922 2.43732 34.2957 4.14833V4.14833C34.1992 5.85933 32.7298 7.14838 31.0198 7.26044C26.0056 7.58901 21.1747 9.39574 17.1546 12.4868C12.3105 16.2115 8.96626 21.553 7.73154 27.5375C6.49682 33.522 7.45387 39.751 10.4282 45.0888C13.4026 50.4266 18.1961 54.5177 23.935 56.6164C29.6738 58.7151 35.9758 58.6815 41.6919 56.5218C47.4081 54.362 52.1578 50.22 55.075 44.8508C57.9923 39.4816 58.8829 33.2428 57.5844 27.2718C56.5069 22.3165 53.9812 17.8196 50.3619 14.3337C49.1276 13.1449 48.8364 11.2121 49.8665 9.84249V9.84249Z" fill="white" stroke="white" stroke-width="1.77032"/>
</svg>
