<svg width="65" height="66" viewBox="0 0 65 66" fill="none" xmlns="http://www.w3.org/2000/svg">
<path d="M22.4977 23.5835H28.7862C29.7774 23.5835 30.6386 23.7135 31.3698 23.9735C32.101 24.2173 32.7023 24.5666 33.1735 25.0216C33.661 25.4603 34.0184 25.9884 34.2459 26.6059C34.4897 27.2234 34.6115 27.8896 34.6115 28.6046V29.1164C34.6115 29.8314 34.4816 30.5057 34.2216 31.1395C33.9778 31.7569 33.6122 32.3013 33.1247 32.7725C32.6373 33.2437 32.0279 33.6175 31.2967 33.8937C30.5817 34.17 29.7449 34.3081 28.7862 34.3081H24.9107V41.1572H22.4977V23.5835ZM24.9107 25.6797V32.2119H28.3718C30.9067 32.2119 32.1741 31.1638 32.1741 29.0677V28.6289C32.1741 27.6215 31.8654 26.8821 31.2479 26.4109C30.6467 25.9234 29.7774 25.6797 28.6399 25.6797H24.9107ZM44.7069 30.1401C44.4794 30.0426 44.2276 29.9695 43.9513 29.9208C43.6914 29.8558 43.3989 29.8233 43.0739 29.8233C42.6351 29.8233 42.2127 29.9126 41.8064 30.0914C41.4164 30.2539 41.0752 30.4976 40.7827 30.8226C40.4902 31.1313 40.2546 31.5051 40.0759 31.9438C39.8971 32.3825 39.8078 32.8619 39.8078 33.3819V41.1572H37.4435V27.8246H39.7346V29.9451H39.759C40.149 29.1977 40.6527 28.6208 41.2702 28.2146C41.9039 27.7921 42.7083 27.5809 43.6832 27.5809C44.2682 27.5809 44.8451 27.6702 45.4138 27.849L44.7069 30.1401Z" fill="#F490B5"/>
<circle cx="32.6861" cy="32.6851" r="28.7613" stroke="#F490B5" stroke-width="1.77032"/>
<path d="M60.1629 40.5617C61.8103 41.0339 62.7772 42.7597 62.1462 44.3531C60.3222 48.9589 57.4376 53.0872 53.7096 56.3932C49.2054 60.3876 43.6564 63.0161 37.7124 63.9711C31.7684 64.9261 25.6754 64.1679 20.1466 61.7855C14.6178 59.403 9.88221 55.4948 6.49415 50.5184C3.10608 45.5421 1.2058 39.7035 1.01579 33.6862C0.825772 27.669 2.35389 21.7222 5.42122 16.5419C8.48856 11.3617 12.9682 7.1625 18.3356 4.43595C22.7779 2.17932 27.6763 1.00877 32.6301 1.00003C34.3439 0.997008 35.5951 2.52923 35.4306 4.23503V4.23503C35.266 5.94084 33.7466 7.17039 32.0335 7.21429C28.2576 7.31104 24.5368 8.24662 21.1462 9.96895C16.8301 12.1615 13.2278 15.5382 10.7612 19.7039C8.29466 23.8695 7.06584 28.6516 7.21864 33.4904C7.37144 38.3291 8.89954 43.0242 11.624 47.0259C14.3485 51.0276 18.1566 54.1703 22.6026 56.0862C27.0485 58.002 31.9482 58.6117 36.728 57.8437C41.5078 57.0758 45.97 54.9621 49.592 51.75C52.4373 49.2268 54.6717 46.1079 56.1458 42.6303C56.8146 41.0525 58.5155 40.0896 60.1629 40.5617V40.5617Z" fill="#F490B5" stroke="#F490B5" stroke-width="1.77032"/>
</svg>
