<svg width="64" height="64" viewBox="0 0 64 64" fill="none" xmlns="http://www.w3.org/2000/svg">
<path d="M20.5226 22.5835H26.8111C27.8023 22.5835 28.6635 22.7135 29.3947 22.9735C30.1259 23.2173 30.7272 23.5666 31.1984 24.0216C31.6859 24.4603 32.0433 24.9884 32.2708 25.6059C32.5146 26.2234 32.6364 26.8896 32.6364 27.6046V28.1164C32.6364 28.8314 32.5065 29.5057 32.2465 30.1395C32.0027 30.7569 31.6371 31.3013 31.1496 31.7725C30.6622 32.2437 30.0528 32.6175 29.3216 32.8937C28.6066 33.17 27.7698 33.3081 26.8111 33.3081H22.9356V40.1572H20.5226V22.5835ZM22.9356 24.6797V31.2119H26.3967C28.9316 31.2119 30.1991 30.1638 30.1991 28.0677V27.6289C30.1991 26.6215 29.8903 25.8821 29.2728 25.4109C28.6716 24.9234 27.8023 24.6797 26.6648 24.6797H22.9356ZM38.637 38.3047C39.5145 38.3047 40.1969 38.1504 40.6844 37.8416C41.1719 37.5329 41.4156 37.1104 41.4156 36.5742V36.3792C41.4156 36.103 41.375 35.8673 41.2938 35.6724C41.2125 35.4774 41.0582 35.3067 40.8307 35.1605C40.6032 35.0143 40.2944 34.8843 39.9045 34.7705C39.5145 34.6405 39.0026 34.5105 38.3689 34.3805C37.6377 34.2343 36.9877 34.0555 36.419 33.8443C35.8503 33.6331 35.3709 33.3812 34.9809 33.0887C34.5909 32.78 34.2903 32.4144 34.0791 31.9919C33.8841 31.5694 33.7866 31.0657 33.7866 30.4807V30.1882C33.7866 29.7332 33.8841 29.2864 34.0791 28.8476C34.2741 28.4089 34.5747 28.0271 34.9809 27.7021C35.3871 27.3608 35.899 27.0927 36.5165 26.8977C37.1502 26.6865 37.8977 26.5809 38.7589 26.5809C39.6688 26.5809 40.5138 26.6865 41.2938 26.8977C42.09 27.0927 42.8212 27.4258 43.4874 27.8971L42.4393 29.6764C42.0006 29.3514 41.4725 29.0914 40.855 28.8964C40.2538 28.7014 39.612 28.6039 38.9295 28.6039C37.9383 28.6039 37.2233 28.7583 36.7846 29.067C36.3621 29.3595 36.1509 29.7414 36.1509 30.2126V30.432C36.1509 30.9519 36.3702 31.3419 36.809 31.6019C37.2477 31.8456 37.987 32.065 39.027 32.26C39.8395 32.4062 40.5463 32.585 41.1475 32.7962C41.7488 33.0075 42.2444 33.2756 42.6343 33.6006C43.0243 33.9093 43.3168 34.283 43.5118 34.7218C43.7068 35.1605 43.8043 35.6886 43.8043 36.3061V36.6229C43.8043 37.1429 43.6824 37.6304 43.4387 38.0854C43.2112 38.5404 42.8781 38.9385 42.4393 39.2797C42.0006 39.6047 41.4644 39.8647 40.8307 40.0597C40.2132 40.2547 39.5145 40.3522 38.7345 40.3522C37.6133 40.3522 36.5977 40.2059 35.6878 39.9134C34.7778 39.6209 34.006 39.231 33.3722 38.7435L34.4691 36.8911C35.0703 37.2973 35.7121 37.6385 36.3946 37.9148C37.0771 38.1747 37.8245 38.3047 38.637 38.3047Z" fill="#427AD3"/>
<circle cx="31.6861" cy="31.6851" r="28.7613" stroke="#427AD3" stroke-width="1.77032"/>
<path d="M51.0543 10.7548C52.2429 9.4703 54.2614 9.38296 55.4208 10.6938C59.6835 15.5131 62.3956 21.5382 63.1545 27.9776C64.0375 35.4703 62.2181 43.0322 58.0234 49.3032C53.8287 55.5742 47.5341 60.1427 40.2718 62.1869C33.0095 64.2312 25.256 63.6171 18.4061 60.4551C11.5561 57.293 6.05914 51.7906 2.90396 44.9375C-0.251221 38.0843 -0.857579 30.3303 1.19395 23.07C3.24548 15.8097 7.82026 9.51968 14.0954 5.33128C19.4884 1.73169 25.8332 -0.112616 32.2661 0.00524951C34.0158 0.0373077 35.2587 1.63022 35.0522 3.36796V3.36796C34.8456 5.10571 33.2663 6.32604 31.5164 6.33774C26.5881 6.3707 21.7508 7.84085 17.6136 10.6023C12.5934 13.953 8.93362 18.985 7.29239 24.7932C5.65117 30.6015 6.13625 36.8047 8.6604 42.2872C11.1845 47.7697 15.5821 52.1717 21.0621 54.7013C26.542 57.2309 32.7448 57.7222 38.5547 56.0868C44.3645 54.4514 49.4002 50.7966 52.756 45.7798C56.1117 40.763 57.5673 34.7134 56.8608 28.7193C56.2787 23.7793 54.2596 19.1442 51.0878 15.3721C49.9615 14.0327 49.8658 12.0392 51.0543 10.7548V10.7548Z" fill="#427AD3"/>
</svg>
