<svg width="240" height="236" viewBox="0 0 240 236" fill="none" xmlns="http://www.w3.org/2000/svg">
<path d="M194.816 198.483C194.734 198.304 194.661 198.133 194.596 197.971C194.531 197.792 194.466 197.613 194.401 197.435C194.336 197.256 194.263 197.053 194.182 196.825C194.101 196.598 194.011 196.338 193.914 196.045V211.157H191.623V193.584H195.181L200.056 205.088L204.809 193.584H208.343V211.157H206.028V196.045C205.946 196.37 205.865 196.647 205.784 196.874C205.719 197.085 205.654 197.28 205.589 197.459C205.54 197.638 205.483 197.808 205.418 197.971C205.353 198.133 205.28 198.304 205.199 198.483L201.007 208.232H198.959L194.816 198.483ZM215.938 211.352C214.59 211.352 213.517 211.019 212.721 210.353C211.941 209.687 211.551 208.769 211.551 207.599V206.94C211.551 205.803 211.933 204.877 212.697 204.162C213.46 203.447 214.695 203.089 216.401 203.089H219.789V202.309C219.789 201.416 219.57 200.758 219.131 200.335C218.709 199.896 218.01 199.677 217.035 199.677C216.255 199.677 215.573 199.799 214.988 200.043C214.419 200.286 213.826 200.611 213.208 201.018L212.039 199.263C212.689 198.808 213.42 198.418 214.232 198.093C215.045 197.751 215.987 197.581 217.06 197.581C217.807 197.581 218.49 197.678 219.107 197.873C219.724 198.052 220.253 198.328 220.691 198.702C221.146 199.06 221.496 199.506 221.739 200.043C221.999 200.563 222.129 201.156 222.129 201.822V211.157H219.863V209.548H219.838C219.708 209.792 219.529 210.02 219.302 210.231C219.091 210.426 218.855 210.597 218.595 210.743C218.238 210.938 217.848 211.084 217.425 211.182C217.019 211.295 216.523 211.352 215.938 211.352ZM219.789 205.088H216.45C215.524 205.088 214.858 205.267 214.452 205.624C214.062 205.982 213.867 206.477 213.867 207.111V207.452C213.867 208.102 214.094 208.574 214.549 208.866C215.004 209.158 215.548 209.305 216.182 209.305C216.767 209.305 217.271 209.24 217.693 209.11C218.132 208.964 218.53 208.752 218.888 208.476C219.213 208.232 219.44 207.956 219.57 207.647C219.716 207.322 219.789 206.908 219.789 206.404V205.088Z" fill="#55B7AB"/>
<circle cx="206.686" cy="202.685" r="28.7613" stroke="#55B7AB" stroke-width="1.77032"/>
<path d="M231.075 187.781C232.538 186.888 234.463 187.343 235.209 188.886C237.817 194.276 238.854 200.316 238.165 206.306C237.357 213.328 234.225 219.878 229.267 224.915C224.308 229.952 217.808 233.187 210.8 234.104C203.791 235.022 196.677 233.57 190.589 229.979C184.501 226.388 179.788 220.865 177.2 214.288C174.612 207.711 174.298 200.457 176.307 193.68C178.316 186.904 182.533 180.993 188.287 176.889C193.196 173.388 198.984 171.372 204.963 171.047C206.674 170.954 208.004 172.418 207.929 174.13V174.13C207.855 175.842 206.402 177.15 204.694 177.284C200.102 177.644 195.672 179.245 191.891 181.942C187.263 185.242 183.872 189.995 182.257 195.444C180.641 200.894 180.894 206.727 182.975 212.016C185.056 217.305 188.846 221.746 193.742 224.634C198.638 227.521 204.358 228.689 209.994 227.951C215.63 227.213 220.857 224.612 224.844 220.562C228.832 216.511 231.35 211.244 232 205.597C232.53 200.983 231.788 196.332 229.881 192.139C229.172 190.579 229.613 188.675 231.075 187.781V187.781Z" fill="#55B7AB" stroke="#55B7AB" stroke-width="1.77032"/>
<path d="M202.493 23.5835V25.6553H194.036V31.5294H201.982V33.6012H194.036V41.1572H191.623V23.5835H202.493ZM207.816 27.8246V41.1572H205.451V27.8246H207.816ZM207.889 23.0473V25.6309H205.378V23.0473H207.889ZM222.411 40.9865C222.411 44.7239 220.428 46.5926 216.463 46.5926C215.553 46.5926 214.725 46.4626 213.977 46.2026C213.23 45.9426 212.58 45.6013 212.027 45.1789L213.1 43.3264C213.538 43.6514 214.05 43.9195 214.635 44.1308C215.237 44.342 215.87 44.4476 216.536 44.4476C217.69 44.4476 218.56 44.1633 219.145 43.5946C219.746 43.0421 220.046 42.1727 220.046 40.9865V39.3535C219.673 39.9872 219.145 40.4341 218.462 40.6941C217.78 40.9703 217.032 41.1084 216.22 41.1084C214.53 41.1084 213.238 40.6209 212.344 39.646C211.467 38.6548 211.028 37.2492 211.028 35.4293V33.3087C211.028 32.415 211.158 31.6107 211.418 30.8957C211.678 30.1808 212.035 29.5795 212.49 29.0921C212.962 28.6046 213.522 28.2308 214.172 27.9708C214.822 27.7109 215.537 27.5809 216.317 27.5809C217.341 27.5809 218.145 27.7596 218.73 28.1171C219.331 28.4583 219.77 28.8239 220.046 29.2139V27.8246H222.411V40.9865ZM220.071 32.48C220.071 32.1388 219.981 31.7976 219.803 31.4563C219.64 31.1151 219.396 30.8145 219.071 30.5545C218.763 30.2783 218.389 30.0589 217.95 29.8964C217.528 29.7339 217.065 29.6527 216.561 29.6527C215.553 29.6527 214.765 30.002 214.197 30.7007C213.644 31.3995 213.368 32.3825 213.368 33.65V35.0393C213.368 36.3067 213.652 37.2898 214.221 37.9885C214.79 38.6873 215.57 39.0366 216.561 39.0366C217.048 39.0366 217.503 38.9635 217.926 38.8173C218.348 38.6548 218.714 38.4273 219.023 38.1348C219.348 37.8423 219.599 37.4929 219.778 37.0867C219.973 36.6642 220.071 36.193 220.071 35.673V32.48Z" fill="white"/>
<circle cx="206.686" cy="32.6851" r="28.7613" stroke="white" stroke-width="1.77032"/>
<path d="M223.867 9.84249C224.897 8.47288 226.854 8.18709 228.116 9.34611C232.912 13.749 236.255 19.5426 237.649 25.9531C239.263 33.3784 238.156 41.1367 234.528 47.8136C230.9 54.4905 224.994 59.6414 217.885 62.3271C210.777 65.0129 202.94 65.0547 195.804 62.4449C188.667 59.835 182.706 54.7474 179.007 48.1096C175.308 41.4717 174.118 33.7256 175.654 26.2835C177.189 18.8414 181.348 12.199 187.372 7.56708C192.572 3.56828 198.864 1.29793 205.369 1.02735C207.081 0.956117 208.392 2.43732 208.296 4.14833V4.14833C208.199 5.85933 206.73 7.14838 205.02 7.26044C200.006 7.58901 195.175 9.39574 191.155 12.4868C186.311 16.2115 182.966 21.553 181.732 27.5375C180.497 33.522 181.454 39.751 184.428 45.0888C187.403 50.4266 192.196 54.5177 197.935 56.6164C203.674 58.7151 209.976 58.6815 215.692 56.5218C221.408 54.362 226.158 50.22 229.075 44.8508C231.992 39.4816 232.883 33.2428 231.584 27.2718C230.507 22.3165 227.981 17.8196 224.362 14.3337C223.128 13.1449 222.836 11.2121 223.867 9.84249V9.84249Z" fill="white" stroke="white" stroke-width="1.77032"/>
<path d="M36.4152 125.183H33.8803L32.0279 120.015H25.3007L23.4483 125.183H20.9865L27.5187 107.609H29.8586L36.4152 125.183ZM26.0319 117.943H31.2967L29.8342 113.824C29.7043 113.467 29.5905 113.158 29.493 112.898C29.3955 112.622 29.3061 112.362 29.2249 112.118C29.1437 111.858 29.0543 111.59 28.9568 111.314C28.8755 111.038 28.778 110.696 28.6643 110.29C28.5343 110.696 28.4287 111.046 28.3474 111.338C28.2662 111.614 28.1849 111.874 28.1037 112.118C28.0225 112.362 27.9331 112.622 27.8356 112.898C27.7543 113.158 27.6487 113.467 27.5187 113.824L26.0319 117.943ZM41.2376 111.85V125.183H38.8734V111.85H41.2376ZM41.3108 107.073V109.656H38.8002V107.073H41.3108Z" fill="#F9AA53"/>
<circle cx="32.6861" cy="117.685" r="28.7613" stroke="#F9AA53" stroke-width="1.77032"/>
<path d="M45.6072 92.2638C46.4001 90.7038 48.3183 90.0689 49.7914 91.0136C55.2074 94.4867 59.4608 99.543 61.9481 105.531C64.8423 112.498 65.1555 120.27 62.8313 127.447C60.5071 134.625 55.6981 140.738 49.2693 144.686C42.8405 148.635 35.2137 150.16 27.7609 148.987C20.308 147.814 13.5181 144.021 8.61255 138.289C3.70697 132.557 1.00762 125.263 1.00002 117.718C0.992416 110.173 3.67707 102.874 8.57109 97.1319C12.7771 92.1972 18.3777 88.6915 24.5986 87.0494C26.2907 86.6028 27.9211 87.7961 28.1966 89.5242V89.5242C28.4721 91.2524 27.2858 92.8574 25.6055 93.3462C20.8733 94.7228 16.6207 97.4572 13.3941 101.243C9.47888 105.836 7.33116 111.676 7.33724 117.712C7.34332 123.747 9.50281 129.583 13.4273 134.168C17.3517 138.754 22.7836 141.789 28.7459 142.727C34.7082 143.665 40.8096 142.445 45.9527 139.286C51.0957 136.127 54.9429 131.237 56.8023 125.495C58.6616 119.753 58.4111 113.536 56.0957 107.962C54.1876 103.368 50.9802 99.4601 46.8994 96.6968C45.4504 95.7156 44.8143 93.8239 45.6072 92.2638V92.2638Z" fill="#F9AA53" stroke="#F9AA53" stroke-width="1.77032"/>
<path d="M108.523 108.584H114.811C115.802 108.584 116.663 108.714 117.395 108.974C118.126 109.217 118.727 109.567 119.198 110.022C119.686 110.46 120.043 110.988 120.271 111.606C120.515 112.223 120.636 112.89 120.636 113.605V114.116C120.636 114.831 120.506 115.506 120.246 116.139C120.003 116.757 119.637 117.301 119.15 117.773C118.662 118.244 118.053 118.617 117.322 118.894C116.607 119.17 115.77 119.308 114.811 119.308H110.936V126.157H108.523V108.584ZM110.936 110.68V117.212H114.397C116.932 117.212 118.199 116.164 118.199 114.068V113.629C118.199 112.621 117.89 111.882 117.273 111.411C116.672 110.923 115.802 110.68 114.665 110.68H110.936ZM126.637 124.305C127.514 124.305 128.197 124.15 128.684 123.842C129.172 123.533 129.416 123.11 129.416 122.574V122.379C129.416 122.103 129.375 121.867 129.294 121.672C129.213 121.477 129.058 121.307 128.831 121.16C128.603 121.014 128.294 120.884 127.904 120.771C127.514 120.641 127.003 120.511 126.369 120.381C125.638 120.234 124.988 120.056 124.419 119.844C123.85 119.633 123.371 119.381 122.981 119.089C122.591 118.78 122.29 118.414 122.079 117.992C121.884 117.569 121.787 117.066 121.787 116.481V116.188C121.787 115.733 121.884 115.286 122.079 114.848C122.274 114.409 122.575 114.027 122.981 113.702C123.387 113.361 123.899 113.093 124.516 112.898C125.15 112.686 125.898 112.581 126.759 112.581C127.669 112.581 128.514 112.686 129.294 112.898C130.09 113.093 130.821 113.426 131.487 113.897L130.439 115.676C130.001 115.351 129.473 115.091 128.855 114.896C128.254 114.701 127.612 114.604 126.929 114.604C125.938 114.604 125.223 114.758 124.785 115.067C124.362 115.359 124.151 115.741 124.151 116.213V116.432C124.151 116.952 124.37 117.342 124.809 117.602C125.248 117.846 125.987 118.065 127.027 118.26C127.839 118.406 128.546 118.585 129.148 118.796C129.749 119.007 130.244 119.276 130.634 119.601C131.024 119.909 131.317 120.283 131.512 120.722C131.707 121.16 131.804 121.689 131.804 122.306V122.623C131.804 123.143 131.682 123.63 131.439 124.085C131.211 124.54 130.878 124.938 130.439 125.28C130.001 125.605 129.464 125.865 128.831 126.06C128.213 126.255 127.514 126.352 126.735 126.352C125.613 126.352 124.598 126.206 123.688 125.913C122.778 125.621 122.006 125.231 121.372 124.743L122.469 122.891C123.07 123.297 123.712 123.639 124.395 123.915C125.077 124.175 125.825 124.305 126.637 124.305Z" fill="#427AD3"/>
<circle cx="119.686" cy="117.685" r="28.7613" stroke="#427AD3" stroke-width="1.77032"/>
<path d="M139.054 96.7548C140.243 95.4703 142.261 95.383 143.421 96.6938C147.683 101.513 150.396 107.538 151.155 113.978C152.038 121.47 150.218 129.032 146.023 135.303C141.829 141.574 135.534 146.143 128.272 148.187C121.009 150.231 113.256 149.617 106.406 146.455C99.5561 143.293 94.0591 137.791 90.904 130.937C87.7488 124.084 87.1424 116.33 89.194 109.07C91.2455 101.81 95.8203 95.5197 102.095 91.3313C107.488 87.7317 113.833 85.8874 120.266 86.0052C122.016 86.0373 123.259 87.6302 123.052 89.368V89.368C122.846 91.1057 121.266 92.326 119.516 92.3377C114.588 92.3707 109.751 93.8408 105.614 96.6023C100.593 99.953 96.9336 104.985 95.2924 110.793C93.6512 116.601 94.1363 122.805 96.6604 128.287C99.1845 133.77 103.582 138.172 109.062 140.701C114.542 143.231 120.745 143.722 126.555 142.087C132.365 140.451 137.4 136.797 140.756 131.78C144.112 126.763 145.567 120.713 144.861 114.719C144.279 109.779 142.26 105.144 139.088 101.372C137.962 100.033 137.866 98.0392 139.054 96.7548V96.7548Z" fill="#427AD3"/>
<path d="M207.49 125.183H204.956L203.103 120.015H196.376L194.523 125.183H192.062L198.594 107.609H200.934L207.49 125.183ZM197.107 117.943H202.372L200.909 113.824C200.779 113.467 200.666 113.158 200.568 112.898C200.471 112.622 200.381 112.362 200.3 112.118C200.219 111.858 200.129 111.59 200.032 111.314C199.951 111.038 199.853 110.696 199.739 110.29C199.61 110.696 199.504 111.046 199.423 111.338C199.341 111.614 199.26 111.874 199.179 112.118C199.098 112.362 199.008 112.622 198.911 112.898C198.83 113.158 198.724 113.467 198.594 113.824L197.107 117.943ZM213.708 113.629C213.22 113.629 212.765 113.719 212.343 113.897C211.937 114.06 211.579 114.296 211.27 114.604C210.978 114.897 210.742 115.262 210.564 115.701C210.401 116.124 210.32 116.587 210.32 117.09V117.432H216.998V116.993C216.998 115.969 216.706 115.157 216.121 114.556C215.536 113.938 214.732 113.629 213.708 113.629ZM218.973 123.915C218.388 124.321 217.689 124.663 216.876 124.939C216.064 125.231 215.048 125.378 213.83 125.378C213.001 125.378 212.229 125.256 211.514 125.012C210.815 124.784 210.198 124.427 209.662 123.939C209.142 123.436 208.727 122.794 208.419 122.014C208.126 121.234 207.98 120.308 207.98 119.235V117.724C207.98 116.717 208.118 115.831 208.394 115.067C208.687 114.304 209.085 113.67 209.589 113.166C210.109 112.646 210.718 112.256 211.417 111.996C212.115 111.736 212.879 111.606 213.708 111.606C215.414 111.606 216.771 112.126 217.778 113.166C218.786 114.206 219.29 115.677 219.29 117.578V119.357H210.32V119.455C210.32 120.722 210.653 121.689 211.319 122.355C211.985 123.005 212.855 123.33 213.927 123.33C214.805 123.33 215.552 123.225 216.17 123.013C216.803 122.802 217.405 122.51 217.973 122.136L218.973 123.915Z" fill="#A4C2FF"/>
<circle cx="206.686" cy="117.685" r="28.7613" stroke="#A4C2FF" stroke-width="1.77032"/>
<path d="M229.125 99.9798C230.47 98.9183 232.436 99.1412 233.361 100.584C236.732 105.842 238.487 112.002 238.366 118.293C238.226 125.623 235.549 132.677 230.79 138.253C226.032 143.83 219.487 147.584 212.271 148.876C205.055 150.168 197.614 148.918 191.217 145.34C184.819 141.761 179.86 136.074 177.185 129.249C174.51 122.424 174.284 114.882 176.546 107.909C178.808 100.936 183.418 94.9628 189.59 91.0076C194.888 87.6127 201.056 85.8846 207.301 86.0059C209.014 86.0392 210.233 87.5976 210.032 89.2995V89.2995C209.832 91.0015 208.286 92.1985 206.573 92.2062C201.759 92.2275 197.027 93.613 192.939 96.2328C187.975 99.4134 184.268 104.216 182.449 109.824C180.63 115.431 180.812 121.496 182.963 126.984C185.114 132.473 189.102 137.045 194.247 139.923C199.391 142.801 205.375 143.806 211.177 142.767C216.98 141.728 222.243 138.709 226.069 134.225C229.896 129.741 232.049 124.068 232.162 118.174C232.255 113.32 230.959 108.562 228.458 104.449C227.568 102.985 227.779 101.041 229.125 99.9798V99.9798Z" fill="#A4C2FF" stroke="#A4C2FF" stroke-width="1.77032"/>
<path d="M26.8604 194.56V212.134H24.4474V194.56H26.8604ZM39.1618 210.476C38.7881 211.159 38.2519 211.638 37.5532 211.914C36.8707 212.191 36.1151 212.329 35.2864 212.329C33.5965 212.329 32.3046 211.841 31.4109 210.866C30.5335 209.875 30.0947 208.47 30.0947 206.65V204.285C30.0947 203.392 30.2247 202.587 30.4847 201.872C30.7447 201.157 31.1022 200.556 31.5572 200.069C32.0284 199.581 32.589 199.207 33.239 198.947C33.8889 198.687 34.6039 198.557 35.3839 198.557C36.4076 198.557 37.2119 198.736 37.7969 199.094C38.3981 199.435 38.8369 199.801 39.1131 200.19V193.707H41.4774V212.134H39.2106V210.476H39.1618ZM39.1375 203.457C39.1375 203.115 39.0481 202.774 38.8694 202.433C38.7069 202.092 38.4631 201.791 38.1381 201.531C37.8294 201.255 37.4557 201.035 37.0169 200.873C36.5944 200.71 36.1313 200.629 35.6276 200.629C34.6202 200.629 33.8321 200.979 33.2633 201.677C32.7109 202.376 32.4346 203.359 32.4346 204.627V206.26C32.4346 207.527 32.719 208.51 33.2877 209.209C33.8564 209.908 34.6364 210.257 35.6276 210.257C36.1151 210.257 36.5701 210.184 36.9926 210.038C37.415 209.875 37.7806 209.648 38.0894 209.355C38.4144 209.063 38.6662 208.713 38.845 208.307C39.04 207.885 39.1375 207.413 39.1375 206.893V203.457Z" fill="#EF608C"/>
<circle cx="32.6861" cy="202.685" r="28.7613" stroke="#EF608C" stroke-width="1.77032"/>
<path d="M60.682 196.921C62.3605 196.576 64.0175 197.656 64.1973 199.361C64.7869 204.946 63.8824 210.609 61.5498 215.759C58.7889 221.855 54.169 226.92 48.3522 230.229C42.5355 233.537 35.8206 234.919 29.1701 234.177C22.5195 233.434 16.2748 230.605 11.3311 226.095C6.38733 221.585 2.99836 215.626 1.64994 209.071C0.30152 202.516 1.06289 195.703 3.82492 189.608C6.58695 183.513 11.2078 178.448 17.0252 175.141C21.9402 172.346 27.4961 170.927 33.1123 171.003C34.8259 171.026 36.0536 172.577 35.8632 174.28V174.28C35.6727 175.983 34.1347 177.189 32.4211 177.207C28.1126 177.252 23.8675 178.389 20.0925 180.536C15.4145 183.195 11.6987 187.268 9.47759 192.169C7.25652 197.071 6.64427 202.55 7.72859 207.82C8.81291 213.091 11.5381 217.883 15.5136 221.51C19.4891 225.137 24.5107 227.412 29.8587 228.009C35.2067 228.606 40.6064 227.495 45.2839 224.834C49.9614 222.174 53.6765 218.101 55.8967 213.199C57.6882 209.243 58.4321 204.912 58.0822 200.617C57.9431 198.909 59.0034 197.267 60.682 196.921V196.921Z" fill="#EF608C" stroke="#EF608C" stroke-width="1.77032"/>
<path d="M109.498 193.584H115.786C116.777 193.584 117.639 193.714 118.37 193.974C119.101 194.217 119.702 194.567 120.173 195.022C120.661 195.46 121.018 195.988 121.246 196.606C121.49 197.223 121.612 197.89 121.612 198.605V199.116C121.612 199.831 121.482 200.506 121.222 201.139C120.978 201.757 120.612 202.301 120.125 202.773C119.637 203.244 119.028 203.617 118.297 203.894C117.582 204.17 116.745 204.308 115.786 204.308H111.911V211.157H109.498V193.584ZM111.911 195.68V202.212H115.372C117.907 202.212 119.174 201.164 119.174 199.068V198.629C119.174 197.621 118.865 196.882 118.248 196.411C117.647 195.923 116.777 195.68 115.64 195.68H111.911ZM131.707 200.14C131.479 200.043 131.228 199.97 130.951 199.921C130.691 199.856 130.399 199.823 130.074 199.823C129.635 199.823 129.213 199.913 128.806 200.091C128.416 200.254 128.075 200.498 127.783 200.823C127.49 201.131 127.255 201.505 127.076 201.944C126.897 202.383 126.808 202.862 126.808 203.382V211.157H124.443V197.825H126.735V199.945H126.759C127.149 199.198 127.653 198.621 128.27 198.215C128.904 197.792 129.708 197.581 130.683 197.581C131.268 197.581 131.845 197.67 132.414 197.849L131.707 200.14Z" fill="#F490B5"/>
<circle cx="119.686" cy="202.685" r="28.7613" stroke="#F490B5" stroke-width="1.77032"/>
<path d="M147.163 210.562C148.81 211.034 149.777 212.76 149.146 214.353C147.322 218.959 144.438 223.087 140.71 226.393C136.205 230.388 130.656 233.016 124.712 233.971C118.768 234.926 112.675 234.168 107.147 231.785C101.618 229.403 96.8822 225.495 93.4941 220.518C90.1061 215.542 88.2058 209.703 88.0158 203.686C87.8258 197.669 89.3539 191.722 92.4212 186.542C95.4886 181.362 99.9682 177.163 105.336 174.436C109.778 172.179 114.676 171.009 119.63 171C121.344 170.997 122.595 172.529 122.431 174.235V174.235C122.266 175.941 120.747 177.17 119.033 177.214C115.258 177.311 111.537 178.247 108.146 179.969C103.83 182.161 100.228 185.538 97.7612 189.704C95.2947 193.87 94.0658 198.652 94.2186 203.49C94.3714 208.329 95.8995 213.024 98.624 217.026C101.349 221.028 105.157 224.17 109.603 226.086C114.048 228.002 118.948 228.612 123.728 227.844C128.508 227.076 132.97 224.962 136.592 221.75C139.437 219.227 141.672 216.108 143.146 212.63C143.815 211.053 145.516 210.09 147.163 210.562V210.562Z" fill="#F490B5" stroke="#F490B5" stroke-width="1.77032"/>
</svg>
