<svg width="66" height="66" viewBox="0 0 66 66" fill="none" xmlns="http://www.w3.org/2000/svg">
<path d="M33.4904 40.1826H30.9555L29.1031 35.0153H22.3759L20.5235 40.1826H18.0617L24.5939 22.6089H26.9338L33.4904 40.1826ZM23.1071 32.9435H28.3719L26.9094 28.8243C26.7795 28.4668 26.6657 28.1581 26.5682 27.8981C26.4707 27.6218 26.3813 27.3618 26.3001 27.1181C26.2188 26.8581 26.1295 26.59 26.032 26.3138C25.9507 26.0375 25.8532 25.6963 25.7395 25.2901C25.6095 25.6963 25.5039 26.0457 25.4226 26.3381C25.3414 26.6144 25.2601 26.8744 25.1789 27.1181C25.0976 27.3618 25.0083 27.6218 24.9108 27.8981C24.8295 28.1581 24.7239 28.4668 24.5939 28.8243L23.1071 32.9435ZM39.7079 28.6293C39.2204 28.6293 38.7654 28.7187 38.3429 28.8974C37.9367 29.0599 37.5792 29.2955 37.2705 29.6043C36.978 29.8967 36.7424 30.2624 36.5636 30.7011C36.4011 31.1236 36.3199 31.5867 36.3199 32.0904V32.4316H42.9983V31.9929C42.9983 30.9692 42.7059 30.1567 42.1209 29.5555C41.5359 28.938 40.7316 28.6293 39.7079 28.6293ZM44.9726 38.9151C44.3877 39.3213 43.6889 39.6626 42.8765 39.9388C42.064 40.2313 41.0484 40.3775 39.8297 40.3775C39.001 40.3775 38.2292 40.2557 37.5142 40.0119C36.8155 39.7844 36.198 39.427 35.6618 38.9395C35.1418 38.4358 34.7275 37.7939 34.4187 37.0139C34.1262 36.234 33.98 35.3078 33.98 34.2353V32.7241C33.98 31.7167 34.1181 30.8311 34.3943 30.0674C34.6868 29.3036 35.0849 28.6699 35.5887 28.1662C36.1086 27.6462 36.718 27.2562 37.4167 26.9962C38.1154 26.7363 38.8792 26.6063 39.7079 26.6063C41.414 26.6063 42.7709 27.1262 43.7783 28.1662C44.7858 29.2061 45.2895 30.6767 45.2895 32.5779V34.3572H36.3199V34.4547C36.3199 35.7221 36.653 36.689 37.3192 37.3552C37.9854 38.0051 38.8548 38.3301 39.9272 38.3301C40.8047 38.3301 41.5522 38.2245 42.1696 38.0133C42.8034 37.802 43.4046 37.5095 43.9733 37.1358L44.9726 38.9151Z" fill="#A4C2FF"/>
<circle cx="32.6861" cy="32.6851" r="28.7613" stroke="#A4C2FF" stroke-width="1.77032"/>
<path d="M55.1246 14.9798C56.4699 13.9183 58.4356 14.1412 59.3606 15.5838C62.732 20.8421 64.487 27.0021 64.3665 33.2933C64.226 40.6227 61.5485 47.6766 56.7902 53.2532C52.0319 58.8298 45.4872 62.584 38.2712 63.8762C31.0552 65.1683 23.6145 63.9184 17.2167 60.3395C10.819 56.7606 5.86009 51.074 3.18501 44.2488C0.509929 37.4235 0.28417 29.8819 2.5462 22.9089C4.80822 15.9358 9.41807 9.96284 15.5903 6.00762C20.8882 2.61268 27.0558 0.884643 33.3009 1.00591C35.0143 1.03919 36.2329 2.59757 36.0323 4.29951V4.29951C35.8317 6.00145 34.2865 7.19854 32.5728 7.20615C27.7594 7.22753 23.027 8.61295 18.9386 11.2328C13.9753 14.4134 10.2683 19.2165 8.44931 24.8238C6.63032 30.4311 6.81186 36.4957 8.963 41.9842C11.1142 47.4726 15.1018 52.0454 20.2465 54.9234C25.3912 57.8014 31.3747 58.8065 37.1773 57.7674C42.98 56.7283 48.2429 53.7094 52.0693 49.225C55.8956 44.7406 58.0487 39.0682 58.1617 33.1743C58.2547 28.3195 56.9588 23.5618 54.4581 19.4489C53.5678 17.9846 53.7793 16.0414 55.1246 14.9798V14.9798Z" fill="#A4C2FF" stroke="#A4C2FF" stroke-width="1.77032"/>
</svg>
