<svg width="66" height="66" viewBox="0 0 66 66" fill="none" xmlns="http://www.w3.org/2000/svg">
<path d="M20.8157 28.4827C20.7344 28.304 20.6613 28.1333 20.5963 27.9708C20.5313 27.7921 20.4663 27.6134 20.4013 27.4346C20.3363 27.2559 20.2632 27.0528 20.182 26.8253C20.1007 26.5978 20.0113 26.3378 19.9138 26.0453V41.1572H17.6227V23.5835H21.1813L26.0561 35.088L30.809 23.5835H34.3432V41.1572H32.0277V26.0453C31.9465 26.3703 31.8652 26.6465 31.784 26.874C31.719 27.0853 31.654 27.2803 31.589 27.459C31.5402 27.6377 31.4833 27.8084 31.4183 27.9708C31.3534 28.1333 31.2802 28.304 31.199 28.4827L27.0067 38.2323H24.9592L20.8157 28.4827ZM41.9384 41.3522C40.5897 41.3522 39.5172 41.019 38.721 40.3528C37.941 39.6866 37.5511 38.7685 37.5511 37.5986V36.9405C37.5511 35.803 37.9329 34.8768 38.6966 34.1618C39.4604 33.4469 40.6953 33.0894 42.4015 33.0894H45.7895V32.3094C45.7895 31.4157 45.5701 30.7576 45.1314 30.3351C44.7089 29.8964 44.0102 29.677 43.0352 29.677C42.2552 29.677 41.5728 29.7989 40.9878 30.0426C40.4191 30.2864 39.826 30.6114 39.2085 31.0176L38.0385 29.2627C38.6885 28.8077 39.4197 28.4177 40.2322 28.0927C41.0447 27.7515 41.9871 27.5809 43.0596 27.5809C43.807 27.5809 44.4895 27.6784 45.107 27.8734C45.7245 28.0521 46.2526 28.3283 46.6913 28.7021C47.1463 29.0596 47.4956 29.5064 47.7394 30.0426C47.9994 30.5626 48.1294 31.1557 48.1294 31.8219V41.1572H45.8626V39.5485H45.8382C45.7082 39.7922 45.5295 40.0197 45.302 40.231C45.0907 40.4259 44.8551 40.5966 44.5951 40.7428C44.2377 40.9378 43.8477 41.084 43.4252 41.1815C43.019 41.2953 42.5234 41.3522 41.9384 41.3522ZM45.7895 35.088H42.4502C41.524 35.088 40.8578 35.2668 40.4516 35.6243C40.0616 35.9818 39.8666 36.4774 39.8666 37.1111V37.4523C39.8666 38.1023 40.0941 38.5735 40.5491 38.866C41.004 39.1585 41.5484 39.3047 42.1821 39.3047C42.7671 39.3047 43.2708 39.2397 43.6933 39.1097C44.132 38.9635 44.5301 38.7523 44.8876 38.476C45.2126 38.2323 45.4401 37.956 45.5701 37.6473C45.7163 37.3223 45.7895 36.908 45.7895 36.4042V35.088Z" fill="#55B7AB"/>
<circle cx="32.6861" cy="32.6851" r="28.7613" stroke="#55B7AB" stroke-width="1.77032"/>
<path d="M57.0755 17.7812C58.5378 16.8876 60.4628 17.3432 61.2092 18.8859C63.8171 24.2757 64.8537 30.3158 64.1648 36.3062C63.3573 43.328 60.2252 49.8783 55.2667 54.9152C50.3081 59.9522 43.8078 63.1866 36.7995 64.1042C29.7912 65.0217 22.6774 63.5697 16.5892 59.979C10.5011 56.3884 5.78834 50.8652 3.20038 44.2879C0.612415 37.7107 0.297868 30.4569 2.30676 23.6803C4.31566 16.9037 8.53264 10.9933 14.2871 6.88913C19.1962 3.3878 24.9839 1.3725 30.9626 1.04687C32.6738 0.953671 34.004 2.41792 33.9294 4.13003V4.13003C33.8549 5.84213 32.4023 7.14993 30.6938 7.28392C26.1018 7.64406 21.6721 9.24461 17.8907 11.9416C13.2633 15.242 9.87221 19.9948 8.25677 25.4442C6.64133 30.8935 6.89427 36.7266 8.97537 42.0156C11.0565 47.3047 14.8462 51.7461 19.7419 54.6335C24.6376 57.5209 30.3582 58.6886 35.9939 57.9507C41.6296 57.2129 46.8567 54.6119 50.8441 50.5615C54.8315 46.5111 57.3501 41.2437 57.9995 35.5972C58.5302 30.9829 57.7876 26.3318 55.8809 22.1389C55.1715 20.5789 55.6132 18.6748 57.0755 17.7812V17.7812Z" fill="#55B7AB" stroke="#55B7AB" stroke-width="1.77032"/>
</svg>
