<svg width="66" height="66" viewBox="0 0 66 66" fill="none" xmlns="http://www.w3.org/2000/svg">
<path d="M26.8604 24.5601V42.1337H24.4474V24.5601H26.8604ZM39.1618 40.4763C38.7881 41.1588 38.2519 41.6381 37.5532 41.9144C36.8707 42.1906 36.1151 42.3287 35.2864 42.3287C33.5965 42.3287 32.3046 41.8412 31.4109 40.8663C30.5335 39.8751 30.0947 38.4695 30.0947 36.6496V34.2853C30.0947 33.3916 30.2247 32.5873 30.4847 31.8723C30.7447 31.1573 31.1022 30.5561 31.5572 30.0686C32.0284 29.5811 32.589 29.2074 33.239 28.9474C33.8889 28.6874 34.6039 28.5574 35.3839 28.5574C36.4076 28.5574 37.2119 28.7362 37.7969 29.0937C38.3981 29.4349 38.8369 29.8005 39.1131 30.1905V23.707H41.4774V42.1337H39.2106V40.4763H39.1618ZM39.1375 33.4566C39.1375 33.1154 39.0481 32.7741 38.8694 32.4329C38.7069 32.0917 38.4631 31.791 38.1381 31.5311C37.8294 31.2548 37.4557 31.0354 37.0169 30.873C36.5944 30.7105 36.1313 30.6292 35.6276 30.6292C34.6202 30.6292 33.8321 30.9786 33.2633 31.6773C32.7109 32.376 32.4346 33.3591 32.4346 34.6265V36.2596C32.4346 37.527 32.719 38.5101 33.2877 39.2088C33.8564 39.9076 34.6364 40.2569 35.6276 40.2569C36.1151 40.2569 36.5701 40.1838 36.9926 40.0376C37.415 39.8751 37.7806 39.6476 38.0894 39.3551C38.4144 39.0626 38.6662 38.7132 38.845 38.307C39.04 37.8845 39.1375 37.4133 39.1375 36.8933V33.4566Z" fill="#EF608C"/>
<circle cx="32.6861" cy="32.6851" r="28.7613" stroke="#EF608C" stroke-width="1.77032"/>
<path d="M60.682 26.9214C62.3605 26.5758 64.0175 27.6564 64.1973 29.3606C64.7869 34.9463 63.8824 40.6088 61.5498 45.7591C58.7889 51.8548 54.169 56.92 48.3522 60.2286C42.5355 63.5371 35.8206 64.9192 29.1701 64.1766C22.5195 63.434 16.2748 60.605 11.3311 56.095C6.38733 51.585 2.99836 45.6255 1.64994 39.0709C0.30152 32.5163 1.06289 25.7031 3.82492 19.6079C6.58695 13.5126 11.2078 8.44828 17.0252 5.14081C21.9402 2.34636 27.4961 0.927251 33.1123 1.00283C34.8259 1.0259 36.0536 2.57698 35.8632 4.28009V4.28009C35.6727 5.98319 34.1347 7.18947 32.4211 7.2073C28.1126 7.25211 23.8675 8.38947 20.0925 10.5357C15.4145 13.1954 11.6987 17.2679 9.47759 22.1693C7.25652 27.0708 6.64427 32.5496 7.72859 37.8204C8.81291 43.0913 11.5381 47.8835 15.5136 51.5102C19.4891 55.1369 24.5107 57.4119 29.8587 58.009C35.2067 58.6061 40.6064 57.4948 45.2839 54.8342C49.9614 52.1737 53.6765 48.1005 55.8967 43.1986C57.6882 39.243 58.4321 34.9116 58.0822 30.6171C57.9431 28.909 59.0034 27.267 60.682 26.9214V26.9214Z" fill="#EF608C" stroke="#EF608C" stroke-width="1.77032"/>
</svg>
