<svg width="66" height="65" viewBox="0 0 66 65" fill="none" xmlns="http://www.w3.org/2000/svg">
<path d="M36.4152 39.1826H33.8803L32.0279 34.0153H25.3007L23.4483 39.1826H20.9865L27.5187 21.6089H29.8586L36.4152 39.1826ZM26.0319 31.9435H31.2967L29.8342 27.8243C29.7043 27.4668 29.5905 27.1581 29.493 26.8981C29.3955 26.6218 29.3061 26.3618 29.2249 26.1181C29.1437 25.8581 29.0543 25.59 28.9568 25.3138C28.8755 25.0375 28.778 24.6963 28.6643 24.2901C28.5343 24.6963 28.4287 25.0457 28.3474 25.3381C28.2662 25.6144 28.1849 25.8744 28.1037 26.1181C28.0225 26.3618 27.9331 26.6218 27.8356 26.8981C27.7543 27.1581 27.6487 27.4668 27.5187 27.8243L26.0319 31.9435ZM41.2376 25.85V39.1826H38.8734V25.85H41.2376ZM41.3108 21.0727V23.6563H38.8002V21.0727H41.3108Z" fill="#F9AA53"/>
<circle cx="32.6861" cy="31.6851" r="28.7613" stroke="#F9AA53" stroke-width="1.77032"/>
<path d="M45.6072 6.26381C46.4001 4.70377 48.3183 4.06889 49.7914 5.01356C55.2074 8.48674 59.4608 13.543 61.9481 19.5309C64.8423 26.4983 65.1555 34.2697 62.8313 41.4473C60.5071 48.625 55.6981 54.7378 49.2693 58.6863C42.8405 62.6348 35.2137 64.1599 27.7609 62.9872C20.308 61.8144 13.5181 58.0209 8.61255 52.2889C3.70697 46.5569 1.00762 39.2626 1.00002 31.7181C0.992416 24.1735 3.67707 16.8738 8.57109 11.1319C12.7771 6.19725 18.3777 2.69152 24.5986 1.04944C26.2907 0.602805 27.9211 1.79607 28.1966 3.52422V3.52422C28.4721 5.25238 27.2858 6.85736 25.6055 7.34616C20.8733 8.72275 16.6207 11.4572 13.3941 15.2428C9.47888 19.8363 7.33116 25.676 7.33724 31.7117C7.34332 37.7473 9.50281 43.5828 13.4273 48.1684C17.3517 52.754 22.7836 55.7888 28.7459 56.727C34.7082 57.6651 40.8096 56.4451 45.9527 53.2863C51.0957 50.1275 54.9429 45.2372 56.8023 39.4951C58.6616 33.753 58.4111 27.5358 56.0957 21.9619C54.1876 17.3684 50.9802 13.4601 46.8994 10.6968C45.4504 9.7156 44.8143 7.82385 45.6072 6.26381V6.26381Z" fill="#F9AA53" stroke="#F9AA53" stroke-width="1.77032"/>
</svg>
