<svg width="56" height="55" viewBox="0 0 56 55" fill="none" xmlns="http://www.w3.org/2000/svg">
<path d="M31.2536 33.5336H29.088L27.5055 29.1191H21.7584L20.1758 33.5336H18.0727L23.6532 18.5203H25.6522L31.2536 33.5336ZM22.3831 27.3492H26.8808L25.6314 23.8301C25.5204 23.5247 25.4232 23.2609 25.3399 23.0388C25.2566 22.8028 25.1803 22.5807 25.1109 22.3725C25.0414 22.1504 24.9651 21.9213 24.8818 21.6853C24.8124 21.4494 24.7291 21.1578 24.6319 20.8108C24.5209 21.1578 24.4306 21.4563 24.3612 21.7062C24.2918 21.9422 24.2224 22.1643 24.153 22.3725C24.0836 22.5807 24.0072 22.8028 23.9239 23.0388C23.8545 23.2609 23.7643 23.5247 23.6532 23.8301L22.3831 27.3492ZM35.3735 22.1435V33.5336H33.3536V22.1435H35.3735ZM35.4359 18.0622V20.2694H33.2912V18.0622H35.4359Z" fill="#F9AA53"/>
<circle cx="28.071" cy="27.0691" r="24.571" stroke="#F9AA53" stroke-width="1.5124"/>
<path d="M39.1084 5.35123C39.7858 4.01848 41.4245 3.47609 42.6829 4.28313C47.3099 7.2503 50.9436 11.5699 53.0686 16.6854C55.5411 22.6377 55.8086 29.2769 53.8231 35.4089C51.8375 41.5408 47.7292 46.7631 42.2369 50.1363C36.7447 53.5095 30.2291 54.8124 23.8621 53.8105C17.495 52.8087 11.6944 49.5678 7.50348 44.6709C3.31259 39.774 1.00651 33.5424 1.00001 27.0971C0.993521 20.6517 3.28705 14.4154 7.46806 9.51011C11.0613 5.29437 15.846 2.2994 21.1606 0.896544C22.6061 0.514983 23.999 1.5344 24.2344 3.01078C24.4697 4.48716 23.4562 5.85831 22.0207 6.2759C17.9779 7.45193 14.3449 9.78797 11.5884 13.022C8.24359 16.9463 6.40877 21.9353 6.41397 27.0916C6.41916 32.2479 8.26403 37.2332 11.6167 41.1507C14.9694 45.0682 19.61 47.6609 24.7036 48.4624C29.7973 49.2639 35.0097 48.2216 39.4035 45.523C43.7973 42.8244 47.084 38.6466 48.6724 33.741C50.2609 28.8355 50.0468 23.5241 48.0688 18.7623C46.4387 14.838 43.6986 11.4991 40.2123 9.13838C38.9744 8.30013 38.431 6.68399 39.1084 5.35123Z" fill="#F9AA53" stroke="#F9AA53" stroke-width="1.5124"/>
</svg>
