<svg width="56" height="56" viewBox="0 0 56 56" fill="none" xmlns="http://www.w3.org/2000/svg">
<path d="M24.4867 20.3542V22.1242H17.2611V27.1425H24.0494V28.9125H17.2611V35.3676H15.1997V20.3542H24.4867ZM29.0336 23.9774V35.3676H27.0137V23.9774H29.0336ZM29.096 19.8961V22.1034H26.9513V19.8961H29.096ZM41.5021 35.2218C41.5021 38.4147 39.8085 40.0111 36.4213 40.0111C35.6439 40.0111 34.9359 39.9 34.2974 39.6779C33.6588 39.4558 33.1035 39.1643 32.6315 38.8033L33.5477 37.2208C33.9226 37.4984 34.3598 37.7275 34.8596 37.908C35.3732 38.0884 35.9146 38.1787 36.4838 38.1787C37.4694 38.1787 38.2121 37.9357 38.7118 37.4499C39.2255 36.9779 39.4823 36.2352 39.4823 35.2218V33.8267C39.163 34.3681 38.7118 34.7498 38.1288 34.9719C37.5457 35.2079 36.9072 35.3259 36.2131 35.3259C34.7694 35.3259 33.6657 34.9095 32.9022 34.0765C32.1526 33.2297 31.7778 32.029 31.7778 30.4742V28.6626C31.7778 27.8991 31.8888 27.2119 32.111 26.6011C32.3331 25.9903 32.6385 25.4767 33.0272 25.0602C33.4297 24.6438 33.9087 24.3245 34.4639 24.1024C35.0192 23.8803 35.63 23.7692 36.2964 23.7692C37.1709 23.7692 37.8581 23.9219 38.3578 24.2273C38.8715 24.5188 39.2463 24.8312 39.4823 25.1643V23.9774H41.5021V35.2218ZM39.5031 27.9546C39.5031 27.6631 39.4267 27.3716 39.274 27.08C39.1352 26.7885 38.927 26.5317 38.6494 26.3096C38.3856 26.0736 38.0663 25.8862 37.6915 25.7474C37.3306 25.6086 36.9349 25.5392 36.5046 25.5392C35.6439 25.5392 34.9706 25.8376 34.4848 26.4345C34.0128 27.0315 33.7768 27.8713 33.7768 28.9541V30.141C33.7768 31.2238 34.0197 32.0637 34.5056 32.6606C34.9915 33.2575 35.6578 33.556 36.5046 33.556C36.9211 33.556 37.3097 33.4935 37.6707 33.3686C38.0316 33.2297 38.3439 33.0354 38.6077 32.7855C38.8853 32.5357 39.1005 32.2372 39.2532 31.8901C39.4198 31.5292 39.5031 31.1266 39.5031 30.6824V27.9546Z" fill="white"/>
<circle cx="28.071" cy="28.0691" r="24.571" stroke="white" stroke-width="1.5124"/>
<path d="M42.7471 8.55422C43.6271 7.38415 45.2995 7.14 46.3779 8.13016C50.4747 11.8916 53.3304 16.8412 54.5214 22.3176C55.9008 28.6611 54.9547 35.2891 51.8554 40.9933C48.7561 46.6975 43.7102 51.0979 37.6374 53.3924C31.5646 55.6868 24.8695 55.7225 18.7727 53.4929C12.6758 51.2633 7.5832 46.917 4.4233 41.2462C1.2634 35.5754 0.246636 28.9578 1.55838 22.6C2.87013 16.2421 6.42302 10.5674 11.5693 6.61032C16.0123 3.1941 21.3873 1.25452 26.9442 1.02336C28.407 0.96251 29.5273 2.22792 29.4448 3.68965V3.68965C29.3624 5.15137 28.1071 6.25262 26.6462 6.34835C22.3625 6.62905 18.2354 8.17256 14.8011 10.8133C10.6627 13.9954 7.80565 18.5586 6.75082 23.6713C5.69599 28.7839 6.51361 34.1053 9.05462 38.6655C11.5956 43.2256 15.6908 46.7207 20.5936 48.5136C25.4963 50.3066 30.8802 50.2779 35.7635 48.4328C40.6469 46.5877 44.7046 43.0491 47.1968 38.4621C49.6891 33.8752 50.4499 28.5453 49.3406 23.4442C48.4201 19.2109 46.2624 15.3691 43.1704 12.3911C42.1159 11.3755 41.8671 9.72429 42.7471 8.55422V8.55422Z" fill="white" stroke="white" stroke-width="1.5124"/>
</svg>
