<svg width="240" height="236" viewBox="0 0 240 236" fill="none" xmlns="http://www.w3.org/2000/svg">
<path d="M194.816 198.483C194.734 198.304 194.661 198.133 194.596 197.971C194.531 197.792 194.466 197.613 194.401 197.435C194.336 197.256 194.263 197.053 194.182 196.825C194.101 196.598 194.011 196.338 193.914 196.045V211.157H191.623V193.584H195.181L200.056 205.088L204.809 193.584H208.343V211.157H206.028V196.045C205.946 196.37 205.865 196.647 205.784 196.874C205.719 197.085 205.654 197.28 205.589 197.459C205.54 197.638 205.483 197.808 205.418 197.971C205.353 198.133 205.28 198.304 205.199 198.483L201.007 208.232H198.959L194.816 198.483ZM215.938 211.352C214.59 211.352 213.517 211.019 212.721 210.353C211.941 209.687 211.551 208.769 211.551 207.599V206.94C211.551 205.803 211.933 204.877 212.697 204.162C213.46 203.447 214.695 203.089 216.401 203.089H219.789V202.309C219.789 201.416 219.57 200.758 219.131 200.335C218.709 199.896 218.01 199.677 217.035 199.677C216.255 199.677 215.573 199.799 214.988 200.043C214.419 200.286 213.826 200.611 213.208 201.018L212.039 199.263C212.689 198.808 213.42 198.418 214.232 198.093C215.045 197.751 215.987 197.581 217.06 197.581C217.807 197.581 218.49 197.678 219.107 197.873C219.724 198.052 220.253 198.328 220.691 198.702C221.146 199.06 221.496 199.506 221.739 200.043C221.999 200.563 222.129 201.156 222.129 201.822V211.157H219.863V209.548H219.838C219.708 209.792 219.529 210.02 219.302 210.231C219.091 210.426 218.855 210.597 218.595 210.743C218.238 210.938 217.848 211.084 217.425 211.182C217.019 211.295 216.523 211.352 215.938 211.352ZM219.789 205.088H216.45C215.524 205.088 214.858 205.267 214.452 205.624C214.062 205.982 213.867 206.477 213.867 207.111V207.452C213.867 208.102 214.094 208.574 214.549 208.866C215.004 209.158 215.548 209.305 216.182 209.305C216.767 209.305 217.271 209.24 217.693 209.11C218.132 208.964 218.53 208.752 218.888 208.476C219.213 208.232 219.44 207.956 219.57 207.647C219.716 207.322 219.789 206.908 219.789 206.404V205.088Z" fill="#55B7AB"/>
<circle cx="206.686" cy="202.685" r="28.7613" stroke="#55B7AB" stroke-width="1.77032"/>
<path d="M231.075 187.781C232.538 186.888 234.463 187.343 235.209 188.886C237.817 194.276 238.854 200.316 238.165 206.306C237.357 213.328 234.225 219.878 229.267 224.915C224.308 229.952 217.808 233.187 210.8 234.104C203.791 235.022 196.677 233.57 190.589 229.979C184.501 226.388 179.788 220.865 177.2 214.288C174.612 207.711 174.298 200.457 176.307 193.68C178.316 186.904 182.533 180.993 188.287 176.889C193.196 173.388 198.984 171.372 204.963 171.047C206.674 170.954 208.004 172.418 207.929 174.13V174.13C207.855 175.842 206.402 177.15 204.694 177.284C200.102 177.644 195.672 179.245 191.891 181.942C187.263 185.242 183.872 189.995 182.257 195.444C180.641 200.894 180.894 206.727 182.975 212.016C185.056 217.305 188.846 221.746 193.742 224.634C198.638 227.521 204.358 228.689 209.994 227.951C215.63 227.213 220.857 224.612 224.844 220.562C228.832 216.511 231.35 211.244 232 205.597C232.53 200.983 231.788 196.332 229.881 192.139C229.172 190.579 229.613 188.675 231.075 187.781V187.781Z" fill="#55B7AB" stroke="#55B7AB" stroke-width="1.77032"/>
<mask id="path-4-outside-1_4189_1987" maskUnits="userSpaceOnUse" x="190.624" y="22.5234" width="31" height="25" fill="black">
<rect fill="white" x="190.624" y="22.5234" width="31" height="25"/>
<path d="M201.811 23.5835V24.5829H192.841V32.1144H201.299V33.0894H192.841V41.1572H191.769V23.5835H201.811ZM206.313 28.1658V41.1572H205.265V28.1658H206.313ZM206.411 23.9004V25.3385H205.168V23.9004H206.411ZM219.176 31.9926C219.176 31.5701 219.079 31.172 218.884 30.7982C218.689 30.4082 218.405 30.0751 218.031 29.7989C217.673 29.5064 217.243 29.2789 216.739 29.1164C216.235 28.9377 215.683 28.8483 215.082 28.8483C213.863 28.8483 212.88 29.2545 212.132 30.067C211.385 30.8795 211.011 32.0494 211.011 33.5769V35.4293C211.011 36.973 211.344 38.151 212.011 38.9635C212.677 39.7597 213.692 40.1578 215.057 40.1578C215.529 40.1578 216.008 40.0685 216.495 39.8897C216.983 39.711 217.422 39.451 217.812 39.1097C218.218 38.7685 218.543 38.3542 218.787 37.8667C219.046 37.3629 219.176 36.7942 219.176 36.1605V31.9926ZM219.152 38.7198C218.827 39.386 218.291 39.9547 217.543 40.4259C216.812 40.8809 215.943 41.1084 214.935 41.1084C213.359 41.1084 212.132 40.6372 211.255 39.6947C210.394 38.7523 209.963 37.3792 209.963 35.5755V33.4306C209.963 32.5369 210.085 31.7488 210.329 31.0663C210.589 30.3676 210.946 29.7826 211.401 29.3114C211.872 28.8402 212.417 28.4908 213.034 28.2633C213.668 28.0196 214.367 27.8977 215.13 27.8977C215.91 27.8977 216.682 28.0602 217.446 28.3852C218.21 28.6939 218.787 29.1489 219.176 29.7501V28.1658H220.2V41.2547C220.2 42.2134 220.07 43.0258 219.81 43.6921C219.55 44.3745 219.201 44.927 218.762 45.3495C218.323 45.772 217.812 46.0726 217.227 46.2513C216.642 46.4463 216.024 46.5438 215.374 46.5438C214.448 46.5438 213.652 46.4301 212.986 46.2026C212.336 45.9751 211.702 45.6501 211.084 45.2276L211.621 44.3745C212.254 44.8133 212.856 45.122 213.424 45.3007C213.993 45.4957 214.602 45.5932 215.252 45.5932C215.772 45.5932 216.268 45.5201 216.739 45.3739C217.21 45.2276 217.625 44.9839 217.982 44.6426C218.34 44.3014 218.624 43.8545 218.835 43.3021C219.046 42.7496 219.152 42.0671 219.152 41.2547V38.7198Z"/>
</mask>
<path d="M201.811 23.5835V24.5829H192.841V32.1144H201.299V33.0894H192.841V41.1572H191.769V23.5835H201.811ZM206.313 28.1658V41.1572H205.265V28.1658H206.313ZM206.411 23.9004V25.3385H205.168V23.9004H206.411ZM219.176 31.9926C219.176 31.5701 219.079 31.172 218.884 30.7982C218.689 30.4082 218.405 30.0751 218.031 29.7989C217.673 29.5064 217.243 29.2789 216.739 29.1164C216.235 28.9377 215.683 28.8483 215.082 28.8483C213.863 28.8483 212.88 29.2545 212.132 30.067C211.385 30.8795 211.011 32.0494 211.011 33.5769V35.4293C211.011 36.973 211.344 38.151 212.011 38.9635C212.677 39.7597 213.692 40.1578 215.057 40.1578C215.529 40.1578 216.008 40.0685 216.495 39.8897C216.983 39.711 217.422 39.451 217.812 39.1097C218.218 38.7685 218.543 38.3542 218.787 37.8667C219.046 37.3629 219.176 36.7942 219.176 36.1605V31.9926ZM219.152 38.7198C218.827 39.386 218.291 39.9547 217.543 40.4259C216.812 40.8809 215.943 41.1084 214.935 41.1084C213.359 41.1084 212.132 40.6372 211.255 39.6947C210.394 38.7523 209.963 37.3792 209.963 35.5755V33.4306C209.963 32.5369 210.085 31.7488 210.329 31.0663C210.589 30.3676 210.946 29.7826 211.401 29.3114C211.872 28.8402 212.417 28.4908 213.034 28.2633C213.668 28.0196 214.367 27.8977 215.13 27.8977C215.91 27.8977 216.682 28.0602 217.446 28.3852C218.21 28.6939 218.787 29.1489 219.176 29.7501V28.1658H220.2V41.2547C220.2 42.2134 220.07 43.0258 219.81 43.6921C219.55 44.3745 219.201 44.927 218.762 45.3495C218.323 45.772 217.812 46.0726 217.227 46.2513C216.642 46.4463 216.024 46.5438 215.374 46.5438C214.448 46.5438 213.652 46.4301 212.986 46.2026C212.336 45.9751 211.702 45.6501 211.084 45.2276L211.621 44.3745C212.254 44.8133 212.856 45.122 213.424 45.3007C213.993 45.4957 214.602 45.5932 215.252 45.5932C215.772 45.5932 216.268 45.5201 216.739 45.3739C217.21 45.2276 217.625 44.9839 217.982 44.6426C218.34 44.3014 218.624 43.8545 218.835 43.3021C219.046 42.7496 219.152 42.0671 219.152 41.2547V38.7198Z" fill="#1C1C1C"/>
<path d="M201.811 23.5835H202.696V22.6984H201.811V23.5835ZM201.811 24.5829V25.468H202.696V24.5829H201.811ZM192.841 24.5829V23.6977H191.956V24.5829H192.841ZM192.841 32.1144H191.956V32.9996H192.841V32.1144ZM201.299 32.1144H202.184V31.2293H201.299V32.1144ZM201.299 33.0894V33.9745H202.184V33.0894H201.299ZM192.841 33.0894V32.2042H191.956V33.0894H192.841ZM192.841 41.1572V42.0423H193.727V41.1572H192.841ZM191.769 41.1572H190.884V42.0423H191.769V41.1572ZM191.769 23.5835V22.6984H190.884V23.5835H191.769ZM201.811 23.5835H200.926V24.5829H201.811H202.696V23.5835H201.811ZM201.811 24.5829V23.6977H192.841V24.5829V25.468H201.811V24.5829ZM192.841 24.5829H191.956V32.1144H192.841H193.727V24.5829H192.841ZM192.841 32.1144V32.9996H201.299V32.1144V31.2293H192.841V32.1144ZM201.299 32.1144H200.414V33.0894H201.299H202.184V32.1144H201.299ZM201.299 33.0894V32.2042H192.841V33.0894V33.9745H201.299V33.0894ZM192.841 33.0894H191.956V41.1572H192.841H193.727V33.0894H192.841ZM192.841 41.1572V40.272H191.769V41.1572V42.0423H192.841V41.1572ZM191.769 41.1572H192.654V23.5835H191.769H190.884V41.1572H191.769ZM191.769 23.5835V24.4687H201.811V23.5835V22.6984H191.769V23.5835ZM206.313 28.1658H207.198V27.2807H206.313V28.1658ZM206.313 41.1572V42.0423H207.198V41.1572H206.313ZM205.265 41.1572H204.38V42.0423H205.265V41.1572ZM205.265 28.1658V27.2807H204.38V28.1658H205.265ZM206.411 23.9004H207.296V23.0152H206.411V23.9004ZM206.411 25.3385V26.2236H207.296V25.3385H206.411ZM205.168 25.3385H204.282V26.2236H205.168V25.3385ZM205.168 23.9004V23.0152H204.282V23.9004H205.168ZM206.313 28.1658H205.428V41.1572H206.313H207.198V28.1658H206.313ZM206.313 41.1572V40.272H205.265V41.1572V42.0423H206.313V41.1572ZM205.265 41.1572H206.15V28.1658H205.265H204.38V41.1572H205.265ZM205.265 28.1658V29.051H206.313V28.1658V27.2807H205.265V28.1658ZM206.411 23.9004H205.525V25.3385H206.411H207.296V23.9004H206.411ZM206.411 25.3385V24.4533H205.168V25.3385V26.2236H206.411V25.3385ZM205.168 25.3385H206.053V23.9004H205.168H204.282V25.3385H205.168ZM205.168 23.9004V24.7856H206.411V23.9004V23.0152H205.168V23.9004ZM218.884 30.7982L218.092 31.1941L218.096 31.2009L218.099 31.2077L218.884 30.7982ZM218.031 29.7989L217.47 30.484L217.487 30.4978L217.505 30.5107L218.031 29.7989ZM216.739 29.1164L216.443 29.9506L216.455 29.9549L216.467 29.9588L216.739 29.1164ZM212.132 30.067L211.481 29.4677L211.481 29.4677L212.132 30.067ZM212.011 38.9635L211.326 39.5248L211.332 39.5315L212.011 38.9635ZM217.812 39.1097L217.242 38.432L217.235 38.4377L217.229 38.4436L217.812 39.1097ZM218.787 37.8667L218 37.4607L217.995 37.4708L218.787 37.8667ZM219.152 38.7198H220.037L218.357 38.3317L219.152 38.7198ZM217.543 40.4259L218.011 41.1775L218.015 41.1747L217.543 40.4259ZM211.255 39.6947L210.601 40.2919L210.607 40.2979L211.255 39.6947ZM210.329 31.0663L209.499 30.7576L209.495 30.7686L210.329 31.0663ZM211.401 29.3114L210.775 28.6855L210.77 28.691L210.764 28.6966L211.401 29.3114ZM213.034 28.2633L213.34 29.094L213.352 29.0895L213.034 28.2633ZM217.446 28.3852L217.099 29.1997L217.107 29.2028L217.114 29.2058L217.446 28.3852ZM219.176 29.7501L218.434 30.2318L220.062 32.7413V29.7501H219.176ZM219.176 28.1658V27.2807H218.291V28.1658H219.176ZM220.2 28.1658H221.085V27.2807H220.2V28.1658ZM219.81 43.6921L218.986 43.3702L218.983 43.3769L219.81 43.6921ZM218.762 45.3495L218.148 44.7119L218.148 44.7119L218.762 45.3495ZM217.227 46.2513L216.968 45.4048L216.957 45.4081L216.947 45.4116L217.227 46.2513ZM212.986 46.2026L212.693 47.0381L212.699 47.0402L212.986 46.2026ZM211.084 45.2276L210.335 44.7566L209.882 45.4774L210.585 45.9581L211.084 45.2276ZM211.621 44.3745L212.124 43.6468L211.364 43.12L210.871 43.9035L211.621 44.3745ZM213.424 45.3007L213.711 44.4634L213.701 44.4597L213.69 44.4563L213.424 45.3007ZM216.739 45.3739L217.001 46.2192L217.001 46.2192L216.739 45.3739ZM217.982 44.6426L218.593 45.2829L218.593 45.2829L217.982 44.6426ZM218.835 43.3021L219.662 43.6182L219.662 43.6182L218.835 43.3021ZM219.176 31.9926H220.062C220.062 31.4278 219.93 30.8892 219.669 30.3888L218.884 30.7982L218.099 31.2077C218.228 31.4547 218.291 31.7123 218.291 31.9926H219.176ZM218.884 30.7982L219.676 30.4024C219.414 29.8794 219.035 29.4406 218.557 29.0871L218.031 29.7989L217.505 30.5107C217.774 30.7096 217.964 30.937 218.092 31.1941L218.884 30.7982ZM218.031 29.7989L218.591 29.1138C218.137 28.7419 217.605 28.4656 217.011 28.274L216.739 29.1164L216.467 29.9588C216.881 30.0923 217.21 30.271 217.47 30.484L218.031 29.7989ZM216.739 29.1164L217.035 28.2822C216.425 28.0658 215.771 27.9632 215.082 27.9632V28.8483V29.7335C215.595 29.7335 216.045 29.8095 216.443 29.9506L216.739 29.1164ZM215.082 28.8483V27.9632C213.644 27.9632 212.415 28.453 211.481 29.4677L212.132 30.067L212.784 30.6663C213.345 30.0561 214.082 29.7335 215.082 29.7335V28.8483ZM212.132 30.067L211.481 29.4677C210.534 30.4973 210.126 31.9131 210.126 33.5769H211.011H211.896C211.896 32.1857 212.236 31.2617 212.784 30.6663L212.132 30.067ZM211.011 33.5769H210.126V35.4293H211.011H211.896V33.5769H211.011ZM211.011 35.4293H210.126C210.126 37.0846 210.481 38.4946 211.326 39.5248L212.011 38.9635L212.695 38.4022C212.207 37.8075 211.896 36.8613 211.896 35.4293H211.011ZM212.011 38.9635L211.332 39.5315C212.215 40.5878 213.518 41.043 215.057 41.043V40.1578V39.2727C213.866 39.2727 213.138 38.9317 212.689 38.3955L212.011 38.9635ZM215.057 40.1578V41.043C215.643 41.043 216.225 40.9317 216.8 40.7208L216.495 39.8897L216.191 39.0587C215.791 39.2052 215.415 39.2727 215.057 39.2727V40.1578ZM216.495 39.8897L216.8 40.7208C217.389 40.5047 217.922 40.1889 218.394 39.7759L217.812 39.1097L217.229 38.4436C216.921 38.7131 216.576 38.9173 216.191 39.0587L216.495 39.8897ZM217.812 39.1097L218.381 39.7875C218.882 39.3663 219.282 38.8552 219.578 38.2625L218.787 37.8667L217.995 37.4708C217.804 37.8531 217.553 38.1707 217.242 38.432L217.812 39.1097ZM218.787 37.8667L219.573 38.2726C219.905 37.6292 220.062 36.9186 220.062 36.1605H219.176H218.291C218.291 36.6699 218.188 37.0967 218 37.4607L218.787 37.8667ZM219.176 36.1605H220.062V31.9926H219.176H218.291V36.1605H219.176ZM219.152 38.7198L218.357 38.3317C218.117 38.8236 217.707 39.2767 217.071 39.6772L217.543 40.4259L218.015 41.1747C218.875 40.6327 219.538 39.9483 219.948 39.1078L219.152 38.7198ZM217.543 40.4259L217.076 39.6744C216.507 40.0281 215.806 40.2233 214.935 40.2233V41.1084V41.9936C216.08 41.9936 217.117 41.7337 218.011 41.1775L217.543 40.4259ZM214.935 41.1084V40.2233C213.546 40.2233 212.576 39.815 211.903 39.0916L211.255 39.6947L210.607 40.2979C211.689 41.4594 213.173 41.9936 214.935 41.9936V41.1084ZM211.255 39.6947L211.908 39.0976C211.248 38.3749 210.848 37.2492 210.848 35.5755H209.963H209.078C209.078 37.5091 209.54 39.1296 210.602 40.2918L211.255 39.6947ZM209.963 35.5755H210.848V33.4306H209.963H209.078V35.5755H209.963ZM209.963 33.4306H210.848C210.848 32.6156 210.96 31.9316 211.162 31.3641L210.329 31.0663L209.495 30.7686C209.21 31.566 209.078 32.4582 209.078 33.4306H209.963ZM210.329 31.0663L211.158 31.375C211.382 30.7748 211.679 30.2985 212.038 29.9262L211.401 29.3114L210.764 28.6966C210.214 29.2668 209.796 29.9604 209.499 30.7577L210.329 31.0663ZM211.401 29.3114L212.027 29.9373C212.409 29.5555 212.845 29.2766 213.34 29.0939L213.034 28.2633L212.728 27.4328C211.989 27.7051 211.336 28.1249 210.775 28.6855L211.401 29.3114ZM213.034 28.2633L213.352 29.0895C213.872 28.8893 214.462 28.7829 215.13 28.7829V27.8977V27.0126C214.272 27.0126 213.463 27.1499 212.717 27.4372L213.034 28.2633ZM215.13 27.8977V28.7829C215.784 28.7829 216.438 28.9183 217.099 29.1997L217.446 28.3852L217.793 27.5707C216.926 27.2021 216.037 27.0126 215.13 27.0126V27.8977ZM217.446 28.3852L217.114 29.2058C217.735 29.457 218.157 29.8051 218.434 30.2318L219.176 29.7501L219.919 29.2685C219.416 28.4928 218.684 27.9309 217.778 27.5646L217.446 28.3852ZM219.176 29.7501H220.062V28.1658H219.176H218.291V29.7501H219.176ZM219.176 28.1658V29.051H220.2V28.1658V27.2807H219.176V28.1658ZM220.2 28.1658H219.315V41.2547H220.2H221.085V28.1658H220.2ZM220.2 41.2547H219.315C219.315 42.1385 219.195 42.835 218.986 43.3703L219.81 43.6921L220.635 44.0138C220.946 43.2167 221.085 42.2882 221.085 41.2547H220.2ZM219.81 43.6921L218.983 43.3769C218.76 43.9614 218.476 44.3961 218.148 44.7119L218.762 45.3495L219.376 45.9871C219.926 45.4579 220.34 44.7876 220.637 44.0072L219.81 43.6921ZM218.762 45.3495L218.148 44.7119C217.81 45.0373 217.42 45.2666 216.968 45.4048L217.227 46.2513L217.485 47.0978C218.203 46.8786 218.837 46.5066 219.376 45.9871L218.762 45.3495ZM217.227 46.2513L216.947 45.4116C216.457 45.5749 215.934 45.6586 215.374 45.6586V46.5438V47.429C216.114 47.429 216.826 47.3177 217.506 47.0911L217.227 46.2513ZM215.374 46.5438V45.6586C214.516 45.6586 213.822 45.5528 213.272 45.3649L212.986 46.2026L212.699 47.0402C213.482 47.3073 214.38 47.429 215.374 47.429V46.5438ZM212.986 46.2026L213.278 45.3671C212.707 45.1674 212.143 44.8794 211.584 44.4971L211.084 45.2276L210.585 45.9581C211.261 46.4208 211.964 46.7827 212.693 47.038L212.986 46.2026ZM211.084 45.2276L211.834 45.6987L212.37 44.8456L211.621 44.3745L210.871 43.9035L210.335 44.7566L211.084 45.2276ZM211.621 44.3745L211.117 45.1023C211.803 45.5777 212.485 45.9333 213.159 46.1452L213.424 45.3007L213.69 44.4563C213.226 44.3107 212.705 44.0488 212.124 43.6468L211.621 44.3745ZM213.424 45.3007L213.137 46.138C213.805 46.3672 214.513 46.4784 215.252 46.4784V45.5932V44.7081C214.692 44.7081 214.18 44.6243 213.711 44.4634L213.424 45.3007ZM215.252 45.5932V46.4784C215.856 46.4784 216.441 46.3932 217.001 46.2192L216.739 45.3739L216.477 44.5285C216.095 44.647 215.688 44.7081 215.252 44.7081V45.5932ZM216.739 45.3739L217.001 46.2192C217.603 46.0324 218.137 45.7184 218.593 45.2829L217.982 44.6426L217.371 44.0024C217.112 44.2494 216.817 44.4228 216.477 44.5285L216.739 45.3739ZM217.982 44.6426L218.593 45.2829C219.063 44.8349 219.413 44.2695 219.662 43.6182L218.835 43.3021L218.008 42.9859C217.835 43.4395 217.617 43.7679 217.371 44.0024L217.982 44.6426ZM218.835 43.3021L219.662 43.6182C219.923 42.9348 220.037 42.1376 220.037 41.2547H219.152H218.267C218.267 41.9967 218.17 42.5644 218.008 42.9859L218.835 43.3021ZM219.152 41.2547H220.037V38.7198H219.152H218.267V41.2547H219.152Z" fill="#1C1C1C" mask="url(#path-4-outside-1_4189_1987)"/>
<circle cx="206.686" cy="32.6851" r="28.7613" stroke="#1C1C1C" stroke-width="1.77032"/>
<path d="M223.867 9.84249C224.897 8.47288 226.854 8.18709 228.116 9.34611C232.912 13.749 236.255 19.5426 237.649 25.9531C239.263 33.3784 238.156 41.1367 234.528 47.8136C230.9 54.4905 224.994 59.6414 217.885 62.3271C210.777 65.0129 202.94 65.0547 195.804 62.4449C188.667 59.835 182.706 54.7474 179.007 48.1096C175.308 41.4717 174.118 33.7256 175.654 26.2835C177.189 18.8414 181.348 12.199 187.372 7.56708C192.572 3.56828 198.864 1.29793 205.369 1.02735C207.081 0.956117 208.392 2.43732 208.296 4.14833V4.14833C208.199 5.85933 206.73 7.14838 205.02 7.26044C200.006 7.58901 195.175 9.39574 191.155 12.4868C186.311 16.2115 182.966 21.553 181.732 27.5375C180.497 33.522 181.454 39.751 184.428 45.0888C187.403 50.4266 192.196 54.5177 197.935 56.6164C203.674 58.7151 209.976 58.6815 215.692 56.5218C221.408 54.362 226.158 50.22 229.075 44.8508C231.992 39.4816 232.883 33.2428 231.584 27.2718C230.507 22.3165 227.981 17.8196 224.362 14.3337C223.128 13.1449 222.836 11.2121 223.867 9.84249V9.84249Z" fill="#1C1C1C" stroke="#1C1C1C" stroke-width="1.77032"/>
<path d="M36.4152 125.183H33.8803L32.0279 120.015H25.3007L23.4483 125.183H20.9865L27.5187 107.609H29.8586L36.4152 125.183ZM26.0319 117.943H31.2967L29.8342 113.824C29.7043 113.467 29.5905 113.158 29.493 112.898C29.3955 112.622 29.3061 112.362 29.2249 112.118C29.1437 111.858 29.0543 111.59 28.9568 111.314C28.8755 111.038 28.778 110.696 28.6643 110.29C28.5343 110.696 28.4287 111.046 28.3474 111.338C28.2662 111.614 28.1849 111.874 28.1037 112.118C28.0225 112.362 27.9331 112.622 27.8356 112.898C27.7543 113.158 27.6487 113.467 27.5187 113.824L26.0319 117.943ZM41.2376 111.85V125.183H38.8734V111.85H41.2376ZM41.3108 107.073V109.656H38.8002V107.073H41.3108Z" fill="#F9AA53"/>
<circle cx="32.6861" cy="117.685" r="28.7613" stroke="#F9AA53" stroke-width="1.77032"/>
<path d="M45.6072 92.2638C46.4001 90.7038 48.3183 90.0689 49.7914 91.0136C55.2074 94.4867 59.4608 99.543 61.9481 105.531C64.8423 112.498 65.1555 120.27 62.8313 127.447C60.5071 134.625 55.6981 140.738 49.2693 144.686C42.8405 148.635 35.2137 150.16 27.7609 148.987C20.308 147.814 13.5181 144.021 8.61255 138.289C3.70697 132.557 1.00762 125.263 1.00002 117.718C0.992416 110.173 3.67707 102.874 8.57109 97.1319C12.7771 92.1972 18.3777 88.6915 24.5986 87.0494C26.2907 86.6028 27.9211 87.7961 28.1966 89.5242V89.5242C28.4721 91.2524 27.2858 92.8574 25.6055 93.3462C20.8733 94.7228 16.6207 97.4572 13.3941 101.243C9.47888 105.836 7.33116 111.676 7.33724 117.712C7.34332 123.747 9.50281 129.583 13.4273 134.168C17.3517 138.754 22.7836 141.789 28.7459 142.727C34.7082 143.665 40.8096 142.445 45.9527 139.286C51.0957 136.127 54.9429 131.237 56.8023 125.495C58.6616 119.753 58.4111 113.536 56.0957 107.962C54.1876 103.368 50.9802 99.4601 46.8994 96.6968C45.4504 95.7156 44.8143 93.8239 45.6072 92.2638V92.2638Z" fill="#F9AA53" stroke="#F9AA53" stroke-width="1.77032"/>
<path d="M108.523 108.584H114.811C115.802 108.584 116.663 108.714 117.395 108.974C118.126 109.217 118.727 109.567 119.198 110.022C119.686 110.46 120.043 110.988 120.271 111.606C120.515 112.223 120.636 112.89 120.636 113.605V114.116C120.636 114.831 120.506 115.506 120.246 116.139C120.003 116.757 119.637 117.301 119.15 117.773C118.662 118.244 118.053 118.617 117.322 118.894C116.607 119.17 115.77 119.308 114.811 119.308H110.936V126.157H108.523V108.584ZM110.936 110.68V117.212H114.397C116.932 117.212 118.199 116.164 118.199 114.068V113.629C118.199 112.621 117.89 111.882 117.273 111.411C116.672 110.923 115.802 110.68 114.665 110.68H110.936ZM126.637 124.305C127.514 124.305 128.197 124.15 128.684 123.842C129.172 123.533 129.416 123.11 129.416 122.574V122.379C129.416 122.103 129.375 121.867 129.294 121.672C129.213 121.477 129.058 121.307 128.831 121.16C128.603 121.014 128.294 120.884 127.904 120.771C127.514 120.641 127.003 120.511 126.369 120.381C125.638 120.234 124.988 120.056 124.419 119.844C123.85 119.633 123.371 119.381 122.981 119.089C122.591 118.78 122.29 118.414 122.079 117.992C121.884 117.569 121.787 117.066 121.787 116.481V116.188C121.787 115.733 121.884 115.286 122.079 114.848C122.274 114.409 122.575 114.027 122.981 113.702C123.387 113.361 123.899 113.093 124.516 112.898C125.15 112.686 125.898 112.581 126.759 112.581C127.669 112.581 128.514 112.686 129.294 112.898C130.09 113.093 130.821 113.426 131.487 113.897L130.439 115.676C130.001 115.351 129.473 115.091 128.855 114.896C128.254 114.701 127.612 114.604 126.929 114.604C125.938 114.604 125.223 114.758 124.785 115.067C124.362 115.359 124.151 115.741 124.151 116.213V116.432C124.151 116.952 124.37 117.342 124.809 117.602C125.248 117.846 125.987 118.065 127.027 118.26C127.839 118.406 128.546 118.585 129.148 118.796C129.749 119.007 130.244 119.276 130.634 119.601C131.024 119.909 131.317 120.283 131.512 120.722C131.707 121.16 131.804 121.689 131.804 122.306V122.623C131.804 123.143 131.682 123.63 131.439 124.085C131.211 124.54 130.878 124.938 130.439 125.28C130.001 125.605 129.464 125.865 128.831 126.06C128.213 126.255 127.514 126.352 126.735 126.352C125.613 126.352 124.598 126.206 123.688 125.913C122.778 125.621 122.006 125.231 121.372 124.743L122.469 122.891C123.07 123.297 123.712 123.639 124.395 123.915C125.077 124.175 125.825 124.305 126.637 124.305Z" fill="#427AD3"/>
<circle cx="119.686" cy="117.685" r="28.7613" stroke="#427AD3" stroke-width="1.77032"/>
<path d="M139.054 96.7548C140.243 95.4703 142.261 95.383 143.421 96.6938C147.683 101.513 150.396 107.538 151.155 113.978C152.038 121.47 150.218 129.032 146.023 135.303C141.829 141.574 135.534 146.143 128.272 148.187C121.009 150.231 113.256 149.617 106.406 146.455C99.5561 143.293 94.0591 137.791 90.904 130.937C87.7488 124.084 87.1424 116.33 89.194 109.07C91.2455 101.81 95.8203 95.5197 102.095 91.3313C107.488 87.7317 113.833 85.8874 120.266 86.0052C122.016 86.0373 123.259 87.6302 123.052 89.368V89.368C122.846 91.1057 121.266 92.326 119.516 92.3377C114.588 92.3707 109.751 93.8408 105.614 96.6023C100.593 99.953 96.9336 104.985 95.2924 110.793C93.6512 116.601 94.1363 122.805 96.6604 128.287C99.1845 133.77 103.582 138.172 109.062 140.701C114.542 143.231 120.745 143.722 126.555 142.087C132.365 140.451 137.4 136.797 140.756 131.78C144.112 126.763 145.567 120.713 144.861 114.719C144.279 109.779 142.26 105.144 139.088 101.372C137.962 100.033 137.866 98.0392 139.054 96.7548V96.7548Z" fill="#427AD3"/>
<path d="M207.49 125.183H204.956L203.103 120.015H196.376L194.523 125.183H192.062L198.594 107.609H200.934L207.49 125.183ZM197.107 117.943H202.372L200.909 113.824C200.779 113.467 200.666 113.158 200.568 112.898C200.471 112.622 200.381 112.362 200.3 112.118C200.219 111.858 200.129 111.59 200.032 111.314C199.951 111.038 199.853 110.696 199.739 110.29C199.61 110.696 199.504 111.046 199.423 111.338C199.341 111.614 199.26 111.874 199.179 112.118C199.098 112.362 199.008 112.622 198.911 112.898C198.83 113.158 198.724 113.467 198.594 113.824L197.107 117.943ZM213.708 113.629C213.22 113.629 212.765 113.719 212.343 113.897C211.937 114.06 211.579 114.296 211.27 114.604C210.978 114.897 210.742 115.262 210.564 115.701C210.401 116.124 210.32 116.587 210.32 117.09V117.432H216.998V116.993C216.998 115.969 216.706 115.157 216.121 114.556C215.536 113.938 214.732 113.629 213.708 113.629ZM218.973 123.915C218.388 124.321 217.689 124.663 216.876 124.939C216.064 125.231 215.048 125.378 213.83 125.378C213.001 125.378 212.229 125.256 211.514 125.012C210.815 124.784 210.198 124.427 209.662 123.939C209.142 123.436 208.727 122.794 208.419 122.014C208.126 121.234 207.98 120.308 207.98 119.235V117.724C207.98 116.717 208.118 115.831 208.394 115.067C208.687 114.304 209.085 113.67 209.589 113.166C210.109 112.646 210.718 112.256 211.417 111.996C212.115 111.736 212.879 111.606 213.708 111.606C215.414 111.606 216.771 112.126 217.778 113.166C218.786 114.206 219.29 115.677 219.29 117.578V119.357H210.32V119.455C210.32 120.722 210.653 121.689 211.319 122.355C211.985 123.005 212.855 123.33 213.927 123.33C214.805 123.33 215.552 123.225 216.17 123.013C216.803 122.802 217.405 122.51 217.973 122.136L218.973 123.915Z" fill="#A4C2FF"/>
<circle cx="206.686" cy="117.685" r="28.7613" stroke="#A4C2FF" stroke-width="1.77032"/>
<path d="M229.125 99.9798C230.47 98.9183 232.436 99.1412 233.361 100.584C236.732 105.842 238.487 112.002 238.366 118.293C238.226 125.623 235.549 132.677 230.79 138.253C226.032 143.83 219.487 147.584 212.271 148.876C205.055 150.168 197.614 148.918 191.217 145.34C184.819 141.761 179.86 136.074 177.185 129.249C174.51 122.424 174.284 114.882 176.546 107.909C178.808 100.936 183.418 94.9628 189.59 91.0076C194.888 87.6127 201.056 85.8846 207.301 86.0059C209.014 86.0392 210.233 87.5976 210.032 89.2995V89.2995C209.832 91.0015 208.286 92.1985 206.573 92.2062C201.759 92.2275 197.027 93.613 192.939 96.2328C187.975 99.4134 184.268 104.216 182.449 109.824C180.63 115.431 180.812 121.496 182.963 126.984C185.114 132.473 189.102 137.045 194.247 139.923C199.391 142.801 205.375 143.806 211.177 142.767C216.98 141.728 222.243 138.709 226.069 134.225C229.896 129.741 232.049 124.068 232.162 118.174C232.255 113.32 230.959 108.562 228.458 104.449C227.568 102.985 227.779 101.041 229.125 99.9798V99.9798Z" fill="#A4C2FF" stroke="#A4C2FF" stroke-width="1.77032"/>
<path d="M26.8604 194.56V212.134H24.4474V194.56H26.8604ZM39.1618 210.476C38.7881 211.159 38.2519 211.638 37.5532 211.914C36.8707 212.191 36.1151 212.329 35.2864 212.329C33.5965 212.329 32.3046 211.841 31.4109 210.866C30.5335 209.875 30.0947 208.47 30.0947 206.65V204.285C30.0947 203.392 30.2247 202.587 30.4847 201.872C30.7447 201.157 31.1022 200.556 31.5572 200.069C32.0284 199.581 32.589 199.207 33.239 198.947C33.8889 198.687 34.6039 198.557 35.3839 198.557C36.4076 198.557 37.2119 198.736 37.7969 199.094C38.3981 199.435 38.8369 199.801 39.1131 200.19V193.707H41.4774V212.134H39.2106V210.476H39.1618ZM39.1375 203.457C39.1375 203.115 39.0481 202.774 38.8694 202.433C38.7069 202.092 38.4631 201.791 38.1381 201.531C37.8294 201.255 37.4557 201.035 37.0169 200.873C36.5944 200.71 36.1313 200.629 35.6276 200.629C34.6202 200.629 33.8321 200.979 33.2633 201.677C32.7109 202.376 32.4346 203.359 32.4346 204.627V206.26C32.4346 207.527 32.719 208.51 33.2877 209.209C33.8564 209.908 34.6364 210.257 35.6276 210.257C36.1151 210.257 36.5701 210.184 36.9926 210.038C37.415 209.875 37.7806 209.648 38.0894 209.355C38.4144 209.063 38.6662 208.713 38.845 208.307C39.04 207.885 39.1375 207.413 39.1375 206.893V203.457Z" fill="#EF608C"/>
<circle cx="32.6861" cy="202.685" r="28.7613" stroke="#EF608C" stroke-width="1.77032"/>
<path d="M60.682 196.921C62.3605 196.576 64.0175 197.656 64.1973 199.361C64.7869 204.946 63.8824 210.609 61.5498 215.759C58.7889 221.855 54.169 226.92 48.3522 230.229C42.5355 233.537 35.8206 234.919 29.1701 234.177C22.5195 233.434 16.2748 230.605 11.3311 226.095C6.38733 221.585 2.99836 215.626 1.64994 209.071C0.30152 202.516 1.06289 195.703 3.82492 189.608C6.58695 183.513 11.2078 178.448 17.0252 175.141C21.9402 172.346 27.4961 170.927 33.1123 171.003C34.8259 171.026 36.0536 172.577 35.8632 174.28V174.28C35.6727 175.983 34.1347 177.189 32.4211 177.207C28.1126 177.252 23.8675 178.389 20.0925 180.536C15.4145 183.195 11.6987 187.268 9.47759 192.169C7.25652 197.071 6.64427 202.55 7.72859 207.82C8.81291 213.091 11.5381 217.883 15.5136 221.51C19.4891 225.137 24.5107 227.412 29.8587 228.009C35.2067 228.606 40.6064 227.495 45.2839 224.834C49.9614 222.174 53.6765 218.101 55.8967 213.199C57.6882 209.243 58.4321 204.912 58.0822 200.617C57.9431 198.909 59.0034 197.267 60.682 196.921V196.921Z" fill="#EF608C" stroke="#EF608C" stroke-width="1.77032"/>
<path d="M109.498 193.584H115.786C116.777 193.584 117.639 193.714 118.37 193.974C119.101 194.217 119.702 194.567 120.173 195.022C120.661 195.46 121.018 195.988 121.246 196.606C121.49 197.223 121.612 197.89 121.612 198.605V199.116C121.612 199.831 121.482 200.506 121.222 201.139C120.978 201.757 120.612 202.301 120.125 202.773C119.637 203.244 119.028 203.617 118.297 203.894C117.582 204.17 116.745 204.308 115.786 204.308H111.911V211.157H109.498V193.584ZM111.911 195.68V202.212H115.372C117.907 202.212 119.174 201.164 119.174 199.068V198.629C119.174 197.621 118.865 196.882 118.248 196.411C117.647 195.923 116.777 195.68 115.64 195.68H111.911ZM131.707 200.14C131.479 200.043 131.228 199.97 130.951 199.921C130.691 199.856 130.399 199.823 130.074 199.823C129.635 199.823 129.213 199.913 128.806 200.091C128.416 200.254 128.075 200.498 127.783 200.823C127.49 201.131 127.255 201.505 127.076 201.944C126.897 202.383 126.808 202.862 126.808 203.382V211.157H124.443V197.825H126.735V199.945H126.759C127.149 199.198 127.653 198.621 128.27 198.215C128.904 197.792 129.708 197.581 130.683 197.581C131.268 197.581 131.845 197.67 132.414 197.849L131.707 200.14Z" fill="#F490B5"/>
<circle cx="119.686" cy="202.685" r="28.7613" stroke="#F490B5" stroke-width="1.77032"/>
<path d="M147.163 210.562C148.81 211.034 149.777 212.76 149.146 214.353C147.322 218.959 144.438 223.087 140.71 226.393C136.205 230.388 130.656 233.016 124.712 233.971C118.768 234.926 112.675 234.168 107.147 231.785C101.618 229.403 96.8822 225.495 93.4941 220.518C90.1061 215.542 88.2058 209.703 88.0158 203.686C87.8258 197.669 89.3539 191.722 92.4212 186.542C95.4886 181.362 99.9682 177.163 105.336 174.436C109.778 172.179 114.676 171.009 119.63 171C121.344 170.997 122.595 172.529 122.431 174.235V174.235C122.266 175.941 120.747 177.17 119.033 177.214C115.258 177.311 111.537 178.247 108.146 179.969C103.83 182.161 100.228 185.538 97.7612 189.704C95.2947 193.87 94.0658 198.652 94.2186 203.49C94.3714 208.329 95.8995 213.024 98.624 217.026C101.349 221.028 105.157 224.17 109.603 226.086C114.048 228.002 118.948 228.612 123.728 227.844C128.508 227.076 132.97 224.962 136.592 221.75C139.437 219.227 141.672 216.108 143.146 212.63C143.815 211.053 145.516 210.09 147.163 210.562V210.562Z" fill="#F490B5" stroke="#F490B5" stroke-width="1.77032"/>
</svg>
