<svg width="55" height="55" viewBox="0 0 55 55" fill="none" xmlns="http://www.w3.org/2000/svg">
<path d="M17.5356 19.3542H22.9079C23.7547 19.3542 24.4905 19.4653 25.1151 19.6874C25.7398 19.8956 26.2535 20.1941 26.656 20.5828C27.0725 20.9576 27.3779 21.4088 27.5722 21.9363C27.7805 22.4638 27.8846 23.033 27.8846 23.6438V24.0811C27.8846 24.6919 27.7735 25.268 27.5514 25.8094C27.3432 26.3369 27.0309 26.8019 26.6144 27.2045C26.1979 27.6071 25.6774 27.9263 25.0527 28.1623C24.4419 28.3983 23.7269 28.5163 22.9079 28.5163H19.5971V34.3676H17.5356V19.3542ZM19.5971 21.145V26.7256H22.5539C24.7195 26.7256 25.8023 25.8302 25.8023 24.0394V23.6646C25.8023 22.8039 25.5385 22.1723 25.011 21.7697C24.4974 21.3532 23.7547 21.145 22.783 21.145H19.5971ZM33.0109 32.785C33.7606 32.785 34.3436 32.6531 34.7601 32.3894C35.1765 32.1256 35.3847 31.7647 35.3847 31.3066V31.14C35.3847 30.904 35.35 30.7027 35.2806 30.5362C35.2112 30.3696 35.0793 30.2238 34.885 30.0989C34.6906 29.9739 34.4269 29.8629 34.0937 29.7657C33.7606 29.6546 33.3233 29.5436 32.7819 29.4325C32.1572 29.3076 31.6019 29.1549 31.116 28.9744C30.6302 28.794 30.2207 28.5788 29.8875 28.3289C29.5543 28.0652 29.2975 27.7528 29.117 27.3919C28.9505 27.031 28.8672 26.6006 28.8672 26.1009V25.851C28.8672 25.4623 28.9505 25.0805 29.117 24.7057C29.2836 24.3309 29.5404 24.0047 29.8875 23.7271C30.2345 23.4355 30.6718 23.2065 31.1993 23.0399C31.7407 22.8594 32.3793 22.7692 33.115 22.7692C33.8924 22.7692 34.6143 22.8594 35.2806 23.0399C35.9608 23.2065 36.5855 23.4911 37.1547 23.8936L36.2593 25.4137C35.8845 25.1361 35.4333 24.914 34.9058 24.7474C34.3922 24.5808 33.8438 24.4975 33.2608 24.4975C32.414 24.4975 31.8032 24.6294 31.4284 24.8931C31.0675 25.143 30.887 25.4692 30.887 25.8718V26.0592C30.887 26.5034 31.0744 26.8366 31.4492 27.0587C31.824 27.267 32.4557 27.4544 33.3441 27.6209C34.0382 27.7459 34.6421 27.8986 35.1557 28.079C35.6693 28.2595 36.0927 28.4886 36.4259 28.7662C36.7591 29.03 37.0089 29.3492 37.1755 29.7241C37.3421 30.0989 37.4254 30.55 37.4254 31.0775V31.3482C37.4254 31.7925 37.3213 32.2089 37.113 32.5976C36.9187 32.9863 36.6341 33.3264 36.2593 33.6179C35.8845 33.8956 35.4264 34.1177 34.885 34.2843C34.3575 34.4509 33.7606 34.5342 33.0942 34.5342C32.1364 34.5342 31.2687 34.4092 30.4914 34.1593C29.714 33.9095 29.0546 33.5763 28.5132 33.1598L29.4502 31.5773C29.9638 31.9243 30.5122 32.2159 31.0952 32.4519C31.6783 32.674 32.3168 32.785 33.0109 32.785Z" fill="#427AD3"/>
<circle cx="27.071" cy="27.0691" r="24.571" stroke="#427AD3" stroke-width="1.5124"/>
<path d="M43.6162 9.18789C44.6316 8.09057 46.3561 8.01595 47.3466 9.13579C50.9882 13.253 53.3052 18.4003 53.9535 23.9015C54.7079 30.3026 53.1535 36.7628 49.57 42.1202C45.9864 47.4776 40.6089 51.3805 34.4046 53.1269C28.2003 54.8733 21.5765 54.3487 15.7245 51.6474C9.87247 48.946 5.17639 44.2452 2.48088 38.3905C-0.214621 32.5358 -0.732638 25.9115 1.02 19.7089C2.77265 13.5064 6.68093 8.13276 12.0419 4.55456C16.6492 1.4794 22.0695 -0.0962087 27.5652 0.00448471C29.06 0.0318723 30.1219 1.39271 29.9454 2.87728C29.769 4.36186 28.4198 5.4044 26.9248 5.41439C22.7145 5.44255 18.5819 6.69851 15.0475 9.05761C10.7587 11.9202 7.63207 16.2191 6.22996 21.1811C4.82785 26.1431 5.24226 31.4426 7.39866 36.1264C9.55507 40.8101 13.3119 44.5708 17.9935 46.7318C22.6751 48.8929 27.9742 49.3126 32.9376 47.9155C37.9011 46.5183 42.2031 43.396 45.0699 39.1101C47.9368 34.8242 49.1803 29.656 48.5768 24.5352C48.0794 20.3149 46.3545 16.3551 43.6448 13.1326C42.6826 11.9883 42.6008 10.2852 43.6162 9.18789Z" fill="#427AD3"/>
</svg>
