<svg width="56" height="56" viewBox="0 0 56 56" fill="none" xmlns="http://www.w3.org/2000/svg">
<path d="M28.7614 34.5336H26.5958L25.0133 30.1191H19.2662L17.6836 34.5336H15.5805L21.1611 19.5203H23.1601L28.7614 34.5336ZM19.8909 28.3492H24.3886L23.1392 24.8301C23.0282 24.5247 22.931 24.2609 22.8477 24.0388C22.7644 23.8028 22.6881 23.5807 22.6187 23.3725C22.5493 23.1504 22.4729 22.9213 22.3896 22.6853C22.3202 22.4494 22.2369 22.1578 22.1397 21.8108C22.0287 22.1578 21.9384 22.4563 21.869 22.7062C21.7996 22.9422 21.7302 23.1643 21.6608 23.3725C21.5914 23.5807 21.515 23.8028 21.4318 24.0388C21.3623 24.2609 21.2721 24.5247 21.1611 24.8301L19.8909 28.3492ZM34.0731 24.6635C33.6566 24.6635 33.2679 24.7399 32.907 24.8926C32.5599 25.0314 32.2545 25.2327 31.9908 25.4964C31.7409 25.7463 31.5396 26.0587 31.3869 26.4335C31.2481 26.7944 31.1787 27.19 31.1787 27.6204V27.9119H36.8841V27.5371C36.8841 26.6625 36.6343 25.9684 36.1345 25.4548C35.6348 24.9273 34.9476 24.6635 34.0731 24.6635ZM38.5708 33.4508C38.0711 33.7978 37.4741 34.0894 36.78 34.3254C36.0859 34.5752 35.2183 34.7002 34.1772 34.7002C33.4692 34.7002 32.8098 34.5961 32.199 34.3878C31.6021 34.1935 31.0746 33.8881 30.6165 33.4716C30.1722 33.0413 29.8182 32.4929 29.5545 31.8266C29.3046 31.1603 29.1797 30.369 29.1797 29.4528V28.1618C29.1797 27.3011 29.2977 26.5445 29.5337 25.8921C29.7835 25.2396 30.1236 24.6982 30.554 24.2679C30.9982 23.8237 31.5188 23.4905 32.1157 23.2684C32.7126 23.0463 33.3651 22.9352 34.0731 22.9352C35.5307 22.9352 36.6898 23.3794 37.5505 24.2679C38.4112 25.1563 38.8415 26.4126 38.8415 28.0368V29.5569H31.1787V29.6402C31.1787 30.723 31.4632 31.549 32.0324 32.1181C32.6016 32.6734 33.3443 32.951 34.2605 32.951C35.0101 32.951 35.6487 32.8608 36.1762 32.6803C36.7176 32.4999 37.2312 32.25 37.7171 31.9307L38.5708 33.4508Z" fill="#A4C2FF"/>
<circle cx="28.071" cy="28.0691" r="24.571" stroke="#A4C2FF" stroke-width="1.5124"/>
<path d="M47.2392 12.9431C48.3885 12.0362 50.0678 12.2266 50.858 13.4591C53.7383 17.9513 55.2376 23.2138 55.1346 28.5884C55.0146 34.85 52.7272 40.8763 48.6621 45.6404C44.5971 50.4046 39.0059 53.6118 32.8412 54.7157C26.6765 55.8196 20.3198 54.7518 14.8541 51.6943C9.38844 48.6368 5.15202 43.7787 2.86667 37.9479C0.581328 32.117 0.388459 25.6741 2.32093 19.717C4.2534 13.7598 8.19164 8.65704 13.4646 5.27806C17.9907 2.37773 23.2597 0.901449 28.595 1.00505C30.0587 1.03348 31.0998 2.36482 30.9284 3.8188C30.757 5.27279 29.437 6.29547 27.9729 6.30198C23.8608 6.32024 19.8178 7.50382 16.3251 9.74197C12.0849 12.4592 8.918 16.5625 7.36402 21.3529C5.81003 26.1433 5.96513 31.3243 7.80287 36.0132C9.64062 40.702 13.0473 44.6086 17.4425 47.0673C21.8377 49.526 26.9494 50.3846 31.9067 49.4969C36.8639 48.6093 41.3601 46.0302 44.629 42.1991C47.8979 38.3681 49.7373 33.5221 49.8338 28.4869C49.9132 24.3393 48.8061 20.2748 46.6698 16.7611C45.9092 15.5101 46.0899 13.85 47.2392 12.9431Z" fill="#A4C2FF" stroke="#A4C2FF" stroke-width="1.5124"/>
</svg>
