<svg width="56" height="56" viewBox="0 0 56 56" fill="none" xmlns="http://www.w3.org/2000/svg">
<path d="M17.9275 24.5397C17.8581 24.387 17.7956 24.2412 17.7401 24.1024C17.6845 23.9497 17.629 23.797 17.5735 23.6443C17.5179 23.4916 17.4555 23.318 17.3861 23.1237C17.3167 22.9293 17.2403 22.7072 17.157 22.4574V35.3676H15.1997V20.3542H18.2398L22.4044 30.1827L26.4649 20.3542H29.4842V35.3676H27.506V22.4574C27.4366 22.735 27.3672 22.971 27.2978 23.1653C27.2422 23.3458 27.1867 23.5124 27.1312 23.6651C27.0895 23.8178 27.041 23.9636 26.9854 24.1024C26.9299 24.2412 26.8674 24.387 26.798 24.5397L23.2165 32.8688H21.4674L17.9275 24.5397ZM35.9728 35.5342C34.8206 35.5342 33.9044 35.2496 33.2242 34.6804C32.5578 34.1113 32.2247 33.3269 32.2247 32.3274V31.7652C32.2247 30.7935 32.5509 30.0022 33.2033 29.3914C33.8558 28.7806 34.9108 28.4752 36.3684 28.4752H39.2628V27.8089C39.2628 27.0453 39.0754 26.4831 38.7006 26.1222C38.3397 25.7474 37.7427 25.56 36.9098 25.56C36.2435 25.56 35.6605 25.6641 35.1607 25.8723C34.6748 26.0805 34.1681 26.3582 33.6406 26.7052L32.6411 25.206C33.1964 24.8173 33.8211 24.4841 34.5152 24.2065C35.2093 23.915 36.0144 23.7692 36.9306 23.7692C37.5692 23.7692 38.1523 23.8525 38.6798 24.0191C39.2073 24.1718 39.6584 24.4078 40.0333 24.7271C40.422 25.0325 40.7204 25.4142 40.9286 25.8723C41.1508 26.3165 41.2618 26.8232 41.2618 27.3924V35.3676H39.3253V33.9933H39.3045C39.1934 34.2015 39.0407 34.3958 38.8464 34.5763C38.6659 34.7429 38.4646 34.8886 38.2425 35.0136C37.9371 35.1802 37.6039 35.3051 37.243 35.3884C36.8959 35.4856 36.4725 35.5342 35.9728 35.5342ZM39.2628 30.1827H36.4101C35.6188 30.1827 35.0496 30.3354 34.7026 30.6408C34.3694 30.9462 34.2028 31.3696 34.2028 31.911V32.2025C34.2028 32.7578 34.3972 33.1603 34.7859 33.4102C35.1746 33.6601 35.6396 33.785 36.181 33.785C36.6808 33.785 37.1111 33.7295 37.472 33.6184C37.8469 33.4935 38.187 33.313 38.4924 33.077C38.77 32.8688 38.9644 32.6328 39.0754 32.3691C39.2003 32.0914 39.2628 31.7374 39.2628 31.3071V30.1827Z" fill="#55B7AB"/>
<circle cx="28.071" cy="28.0691" r="24.571" stroke="#55B7AB" stroke-width="1.5124"/>
<path d="M48.9058 15.3363C50.1551 14.5729 51.7997 14.9622 52.4373 16.2801C54.6652 20.8846 55.5508 26.0448 54.9623 31.1624C54.2724 37.1612 51.5967 42.7572 47.3605 47.0603C43.1244 51.3634 37.5711 54.1266 31.5839 54.9105C25.5966 55.6944 19.5192 54.4539 14.318 51.3864C9.11691 48.3188 5.09073 43.6003 2.87981 37.9813C0.668883 32.3623 0.400162 26.1653 2.11638 20.376C3.8326 14.5867 7.43521 9.5374 12.3513 6.03114C16.5452 3.03992 21.4896 1.31823 26.5973 1.04004C28.0592 0.960421 29.1956 2.21135 29.1319 3.67401V3.67401C29.0683 5.13668 27.8273 6.25394 26.3677 6.36841C22.4447 6.67609 18.6604 8.04345 15.4299 10.3476C11.4766 13.1671 8.57961 17.2274 7.19953 21.8829C5.81944 26.5383 6.03553 31.5216 7.81343 36.0401C9.59133 40.5586 12.829 44.3529 17.0114 46.8196C21.1939 49.2864 26.081 50.2839 30.8956 49.6536C35.7102 49.0232 40.1759 46.8012 43.5823 43.3409C46.9888 39.8806 49.1405 35.3806 49.6952 30.5567C50.1486 26.6147 49.5142 22.6412 47.8853 19.0592C47.2793 17.7264 47.6566 16.0998 48.9058 15.3363V15.3363Z" fill="#55B7AB" stroke="#55B7AB" stroke-width="1.5124"/>
</svg>
