<svg width="56" height="56" viewBox="0 0 56 56" fill="none" xmlns="http://www.w3.org/2000/svg">
<path d="M23.0971 21.1863V36.1996H21.0356V21.1863H23.0971ZM33.6063 34.7836C33.287 35.3667 32.8289 35.7762 32.232 36.0122C31.6489 36.2482 31.0034 36.3662 30.2955 36.3662C28.8517 36.3662 27.7481 35.9497 26.9846 35.1168C26.235 34.27 25.8602 33.0692 25.8602 31.5144V29.4946C25.8602 28.7311 25.9712 28.044 26.1933 27.4332C26.4155 26.8223 26.7209 26.3087 27.1095 25.8923C27.5121 25.4758 27.9911 25.1565 28.5463 24.9344C29.1016 24.7123 29.7124 24.6012 30.3787 24.6012C31.2533 24.6012 31.9405 24.7539 32.4402 25.0593C32.9538 25.3509 33.3287 25.6632 33.5647 25.9964V20.4575H35.5845V36.1996H33.6479V34.7836H33.6063ZM33.5855 28.7866C33.5855 28.4951 33.5091 28.2036 33.3564 27.9121C33.2176 27.6206 33.0094 27.3637 32.7317 27.1416C32.468 26.9056 32.1487 26.7182 31.7739 26.5794C31.4129 26.4406 31.0173 26.3712 30.587 26.3712C29.7263 26.3712 29.053 26.6696 28.5672 27.2666C28.0952 27.8635 27.8592 28.7034 27.8592 29.7861V31.1813C27.8592 32.2641 28.1021 33.1039 28.588 33.7008C29.0738 34.2978 29.7402 34.5962 30.587 34.5962C31.0034 34.5962 31.3921 34.5338 31.7531 34.4088C32.114 34.27 32.4263 34.0757 32.6901 33.8258C32.9677 33.5759 33.1829 33.2775 33.3356 32.9304C33.5022 32.5695 33.5855 32.1669 33.5855 31.7227V28.7866Z" fill="#EF608C"/>
<circle cx="28.071" cy="28.0691" r="24.571" stroke="#EF608C" stroke-width="1.5124"/>
<path d="M51.9869 23.1449C53.4208 22.8496 54.8364 23.7728 54.9901 25.2287C55.4937 30.0007 54.7211 34.8382 52.7283 39.2381C50.3696 44.4458 46.4228 48.773 41.4535 51.5995C36.4842 54.4261 30.7476 55.6068 25.066 54.9724C19.3844 54.338 14.0494 51.9211 9.82595 48.0682C5.60245 44.2152 2.70722 39.124 1.55525 33.5244C0.403282 27.9247 1.05373 22.1041 3.41336 16.8969C5.77298 11.6896 9.72064 7.36314 14.6905 4.53753C18.8894 2.15021 23.6358 0.937849 28.4339 1.00242C29.8978 1.02212 30.9467 2.34723 30.7839 3.80221C30.6212 5.25719 29.3073 6.28773 27.8433 6.30295C24.1625 6.34124 20.5359 7.3129 17.3109 9.14648C13.3144 11.4187 10.14 14.8978 8.24249 19.0852C6.34501 23.2725 5.82195 27.9531 6.7483 32.4561C7.67465 36.959 10.0028 41.053 13.3991 44.1513C16.7954 47.2497 21.0855 49.1932 25.6543 49.7033C30.2231 50.2135 34.8362 49.264 38.8322 46.9911C42.8282 44.7181 46.002 41.2384 47.8987 37.0507C49.4293 33.6714 50.0648 29.971 49.7659 26.3021C49.647 24.8429 50.5529 23.4402 51.9869 23.1449Z" fill="#EF608C" stroke="#EF608C" stroke-width="1.5124"/>
</svg>
