<svg width="56" height="56" viewBox="0 0 56 56" fill="none" xmlns="http://www.w3.org/2000/svg">
<path d="M19.3637 20.3542H24.736C25.5828 20.3542 26.3186 20.4653 26.9433 20.6874C27.568 20.8956 28.0816 21.1941 28.4842 21.5828C28.9006 21.9576 29.206 22.4088 29.4004 22.9363C29.6086 23.4638 29.7127 24.033 29.7127 24.6438V25.0811C29.7127 25.6919 29.6017 26.268 29.3795 26.8094C29.1713 27.3369 28.859 27.8019 28.4425 28.2045C28.0261 28.6071 27.5055 28.9263 26.8808 29.1623C26.27 29.3983 25.5551 29.5163 24.736 29.5163H21.4252V35.3676H19.3637V20.3542ZM21.4252 22.145V27.7256H24.382C26.5476 27.7256 27.6304 26.8302 27.6304 25.0394V24.6646C27.6304 23.8039 27.3667 23.1723 26.8392 22.7697C26.3255 22.3532 25.5828 22.145 24.6111 22.145H21.4252ZM38.3373 25.9556C38.143 25.8723 37.9278 25.8099 37.6918 25.7682C37.4697 25.7127 37.2198 25.6849 36.9422 25.6849C36.5674 25.6849 36.2064 25.7613 35.8594 25.914C35.5262 26.0528 35.2347 26.261 34.9848 26.5387C34.7349 26.8024 34.5337 27.1217 34.3809 27.4965C34.2282 27.8713 34.1519 28.2808 34.1519 28.7251V35.3676H32.1321V23.9774H34.0894V25.789H34.1103C34.4434 25.1505 34.8738 24.6577 35.4013 24.3106C35.9427 23.9497 36.6298 23.7692 37.4627 23.7692C37.9625 23.7692 38.4553 23.8456 38.9412 23.9983L38.3373 25.9556Z" fill="#F490B5"/>
<circle cx="28.071" cy="28.0691" r="24.571" stroke="#F490B5" stroke-width="1.5124"/>
<path d="M51.5434 34.798C52.9508 35.2014 53.7769 36.6758 53.2378 38.037C51.6795 41.9718 49.2152 45.4986 46.0304 48.3229C42.1823 51.7354 37.4418 53.981 32.3638 54.7968C27.2858 55.6127 22.0804 54.965 17.3571 52.9296C12.6339 50.8943 8.58816 47.5555 5.6937 43.3041C2.79925 39.0527 1.17582 34.0648 1.01349 28.9242C0.851155 23.7836 2.15664 18.7031 4.77709 14.2776C7.39755 9.8521 11.2245 6.26469 15.81 3.93537C19.6051 2.00751 23.7898 1.00749 28.0219 1.00003C29.486 0.997444 30.555 2.30643 30.4144 3.76372C30.2738 5.22101 28.9758 6.27143 27.5122 6.30893C24.2865 6.39158 21.1077 7.19086 18.2111 8.66226C14.5238 10.5354 11.4463 13.4202 9.33912 16.9789C7.2319 20.5377 6.18211 24.6231 6.31264 28.7568C6.44318 32.8906 7.74865 36.9016 10.0762 40.3203C12.4038 43.7391 15.6571 46.4239 19.4553 48.0607C23.2535 49.6974 27.4393 50.2182 31.5228 49.5621C35.6062 48.9061 39.4183 47.1003 42.5127 44.3562C44.9434 42.2006 46.8522 39.5361 48.1116 36.5652C48.6829 35.2172 50.1361 34.3946 51.5434 34.798Z" fill="#F490B5" stroke="#F490B5" stroke-width="1.5124"/>
</svg>
