<svg width="706" height="706" viewBox="0 0 706 706" fill="none" xmlns="http://www.w3.org/2000/svg">
<g opacity="0.3">
<path d="M314.672 179.812C233.051 197.222 173.339 270.254 174.437 355.5" stroke="url(#paint0_linear_5405_2000)" stroke-width="2.84855" stroke-miterlimit="10"/>
<path d="M182.379 354.855C182.521 359.241 179.074 362.907 174.694 363.048C170.314 363.189 166.64 359.744 166.499 355.365C166.358 350.979 169.804 347.314 174.185 347.173C178.572 347.031 182.238 350.477 182.379 354.855Z" fill="url(#paint1_linear_5405_2000)"/>
<path d="M180.394 391.791C197.806 473.386 270.858 533.078 356.13 531.978" stroke="url(#paint2_linear_5405_2000)" stroke-width="2.84855" stroke-miterlimit="10"/>
<path d="M355.482 524.036C359.869 523.894 363.535 527.34 363.676 531.719C363.818 536.105 360.371 539.77 355.991 539.911C351.604 540.053 347.937 536.607 347.796 532.228C347.655 527.842 351.101 524.177 355.482 524.036Z" fill="url(#paint3_linear_5405_2000)"/>
<path d="M391.124 525.993C472.745 508.583 532.457 435.551 531.359 350.305" stroke="url(#paint4_linear_5405_2000)" stroke-width="2.84855" stroke-miterlimit="10"/>
<path d="M523.414 350.951C523.273 346.566 526.719 342.9 531.099 342.759C535.48 342.618 539.16 346.062 539.302 350.448C539.443 354.834 535.996 358.5 531.616 358.641C527.229 358.782 523.562 355.337 523.421 350.958L523.414 350.951Z" fill="url(#paint5_linear_5405_2000)"/>
<path d="M525.404 314.015C507.984 232.42 434.932 172.728 349.667 173.828" stroke="url(#paint6_linear_5405_2000)" stroke-width="2.84855" stroke-miterlimit="10"/>
<path d="M350.311 181.771C345.924 181.912 342.257 178.467 342.116 174.088C341.975 169.702 345.422 166.036 349.802 165.895C354.189 165.754 357.856 169.199 357.997 173.578C358.138 177.957 354.691 181.63 350.311 181.771Z" fill="url(#paint7_linear_5405_2000)"/>
</g>
<defs>
<linearGradient id="paint0_linear_5405_2000" x1="319.392" y1="263.062" x2="168.607" y2="271.317" gradientUnits="userSpaceOnUse">
<stop stop-color="white" stop-opacity="0"/>
<stop offset="1" stop-color="#FF1800"/>
</linearGradient>
<linearGradient id="paint1_linear_5405_2000" x1="323.982" y1="346.92" x2="173.198" y2="355.175" gradientUnits="userSpaceOnUse">
<stop stop-color="white" stop-opacity="0"/>
<stop offset="1" stop-color="#FF1800"/>
</linearGradient>
<linearGradient id="paint2_linear_5405_2000" x1="263.669" y1="387.069" x2="271.921" y2="537.808" gradientUnits="userSpaceOnUse">
<stop stop-color="white" stop-opacity="0"/>
<stop offset="1" stop-color="#2A44D7"/>
</linearGradient>
<linearGradient id="paint3_linear_5405_2000" x1="347.548" y1="382.476" x2="355.801" y2="533.215" gradientUnits="userSpaceOnUse">
<stop stop-color="white" stop-opacity="0"/>
<stop offset="1" stop-color="#2A44D7"/>
</linearGradient>
<linearGradient id="paint4_linear_5405_2000" x1="386.404" y1="442.743" x2="537.189" y2="434.488" gradientUnits="userSpaceOnUse">
<stop stop-color="white" stop-opacity="0"/>
<stop offset="1" stop-color="#FFFF00"/>
</linearGradient>
<linearGradient id="paint5_linear_5405_2000" x1="381.811" y1="358.887" x2="532.596" y2="350.632" gradientUnits="userSpaceOnUse">
<stop stop-color="white" stop-opacity="0"/>
<stop offset="1" stop-color="#FFFF00"/>
</linearGradient>
<linearGradient id="paint6_linear_5405_2000" x1="442.129" y1="318.736" x2="433.876" y2="167.997" gradientUnits="userSpaceOnUse">
<stop stop-color="white" stop-opacity="0"/>
<stop offset="1" stop-color="#0CAA00"/>
</linearGradient>
<linearGradient id="paint7_linear_5405_2000" x1="358.245" y1="323.33" x2="349.992" y2="172.592" gradientUnits="userSpaceOnUse">
<stop stop-color="white" stop-opacity="0"/>
<stop offset="1" stop-color="#0CAA00"/>
</linearGradient>
</defs>
</svg>
