<svg width="894" height="138" viewBox="0 0 894 138" fill="none" xmlns="http://www.w3.org/2000/svg">
<path d="M137.718 5.56179C134.772 7.21885 133.484 9.79648 133.484 16.4247V120.819C133.484 127.263 134.772 130.025 137.718 131.682C137.718 132.05 137.718 132.971 137.718 132.971H114.888C114.888 132.971 114.888 132.05 114.888 131.682C117.649 130.025 119.122 127.263 119.122 120.819V9.61237L68.3062 97.6203H66.6491L13.9917 17.3453V110.877C13.9917 118.794 19.5152 128.552 25.591 131.682C25.591 132.05 25.591 132.971 25.591 132.971H0.919365C0.919365 132.971 0.919365 132.05 0.919365 131.682C6.99522 128.552 12.5187 118.794 12.5187 110.877V15.5041L4.23347 4.08886H20.804L73.6456 85.6527L120.595 4.08886H137.718C137.718 4.08886 137.718 5.19356 137.718 5.56179ZM163.723 120.819C163.723 127.263 165.012 130.025 167.958 131.682C167.958 132.05 167.958 132.971 167.958 132.971H145.128C145.128 132.971 145.128 132.05 145.128 131.682C147.889 130.025 149.178 127.263 149.178 120.819V58.5875C149.178 52.1434 148.626 50.3022 145.128 49.7499C145.128 49.3816 145.128 48.461 145.128 48.461L162.434 44.4105H163.723V120.819ZM155.99 29.497C151.203 29.497 147.337 25.6305 147.337 20.8435C147.337 16.0565 151.203 12.19 155.99 12.19C160.777 12.19 164.644 16.0565 164.644 20.8435C164.644 25.6305 160.777 29.497 155.99 29.497ZM248.706 118.978C253.493 125.238 258.464 129.841 263.988 131.682C263.988 132.05 263.988 132.971 263.988 132.971H233.056C233.056 132.971 233.056 132.05 233.056 131.682C236.002 130.393 238.58 127.079 234.345 121.187L209.858 88.9668L200.468 101.118C187.579 117.873 183.529 128 191.078 131.682V132.971H168.063V131.682C179.11 126.895 185.186 119.346 198.442 101.855L209.121 88.0462L186.475 58.4033C181.872 52.3275 176.716 47.7246 171.377 45.8834C171.377 45.3311 171.377 44.4105 171.377 44.4105H202.309C202.309 44.4105 202.309 45.3311 202.309 45.8834C199.363 47.1722 196.601 50.4863 201.204 56.5622L220.352 81.7862L224.587 76.2627C237.475 59.6922 241.526 49.3816 234.161 45.8834V44.4105H256.991V45.8834C245.944 50.4863 239.869 58.2192 226.612 75.5262L221.089 82.7068L248.706 118.978ZM364.237 100.382L365.157 100.75C361.659 118.057 353.926 134.075 334.594 134.075C318.207 134.075 308.081 123.397 308.081 101.671V45.8834H297.218V44.4105C312.868 44.4105 314.157 28.0241 314.157 19.1864H328.702C328.702 33.3635 314.709 43.8581 303.662 44.4105H344.352V45.8834H322.626V104.433C322.626 120.451 327.045 132.787 342.695 130.761C354.847 129.104 360.923 114.559 364.237 100.382ZM405.78 44.4105C430.451 44.4105 451.809 59.8763 451.809 85.2844C451.809 114.743 426.585 134.075 401.913 134.075C377.057 134.075 355.884 118.978 355.884 93.2014C355.884 62.8222 381.108 44.4105 405.78 44.4105ZM416.09 130.761C437.079 124.685 442.787 101.671 436.343 79.3927C429.899 57.2986 412.592 41.6487 391.603 47.7246C370.613 53.8004 364.906 76.815 371.35 99.0932C377.794 121.187 395.101 137.021 416.09 130.761ZM629.167 5.56179C626.221 7.21885 624.932 9.79648 624.932 16.4247V120.819C624.932 127.263 626.221 130.025 629.167 131.682C629.167 132.05 629.167 132.971 629.167 132.971H606.336C606.336 132.971 606.336 132.05 606.336 131.682C609.098 130.025 610.571 127.263 610.571 120.819V9.61237L559.754 97.6203H558.097L505.44 17.3453V110.877C505.44 118.794 510.964 128.552 517.039 131.682C517.039 132.05 517.039 132.971 517.039 132.971H492.368C492.368 132.971 492.368 132.05 492.368 131.682C498.444 128.552 503.967 118.794 503.967 110.877V15.5041L495.682 4.08886H512.252L565.094 85.6527L612.044 4.08886H629.167C629.167 4.08886 629.167 5.19356 629.167 5.56179ZM718.692 131.682C718.692 132.05 718.692 132.971 718.692 132.971H700.096V107.194C695.309 123.397 685.183 134.075 667.507 134.075C652.41 134.075 637.68 126.895 635.287 113.638C632.157 94.8585 643.388 83.8115 657.565 77.9197C652.778 67.241 658.486 44.4105 683.157 44.4105C698.439 44.4105 714.641 52.5116 714.641 75.158V120.819C714.641 127.263 715.93 130.025 718.692 131.682ZM681.5 46.2516C664.93 46.2516 653.883 62.2698 659.406 77.1833C669.349 73.5009 680.396 72.2121 689.049 72.2121C693.284 72.2121 696.966 72.9486 700.096 73.8692V72.5804C700.096 58.5875 694.573 46.2516 681.5 46.2516ZM671.926 131.682C687.944 130.761 696.414 117.137 700.096 103.88V75.5262C699.176 75.158 694.757 73.8692 689.049 73.8692C668.98 73.8692 641.731 83.8115 649.648 116.216C652.042 126.158 662.72 132.234 671.926 131.682ZM783.8 99.2773C796.504 119.898 801.476 127.815 809.761 131.682V132.971H781.775V131.682C786.01 128.368 783.984 123.765 778.461 114.375L757.656 80.4974L742.742 93.5697V119.898C742.742 126.342 744.031 130.025 746.977 131.682C746.977 132.05 746.977 132.971 746.977 132.971H724.146C724.146 132.971 724.146 132.05 724.146 131.682C726.908 130.025 728.197 126.342 728.197 119.898V13.2947C728.197 6.85061 727.645 6.11415 724.146 5.56179C724.146 5.19356 724.146 4.08886 724.146 4.08886L741.453 0.222406H742.742V91.9126L762.259 74.7898C781.223 57.851 785.641 50.6704 778.277 45.8834V44.4105H802.58V45.8834C792.454 49.934 783.616 57.4828 766.862 72.2121L783.8 99.2773ZM873.436 73.5009C883.931 76.2627 893.505 86.9415 892.032 103.696C890.928 116.768 879.328 134.075 853.184 134.075C827.775 134.075 803.288 121.555 802.551 91.1762C801.631 59.3239 830.537 45.5152 850.79 44.4105C866.44 43.674 887.982 51.2228 890.559 73.5009C888.902 73.5009 877.487 73.5009 877.487 73.5009H873.436ZM842.505 46.6199C829.985 49.0134 821.884 59.5081 818.57 72.028H877.303C874.909 56.0098 860.548 43.1216 842.505 46.6199ZM890.375 104.064C892.585 84.9162 879.881 73.5009 865.888 73.5009H818.201C815.808 83.2591 816.36 94.122 819.49 102.96C826.303 122.292 840.111 130.761 858.891 130.025C874.725 129.288 888.534 118.425 890.375 104.064Z" fill="white"/>
</svg>
